<svg version="1" xmlns="http://www.w3.org/2000/svg" width="150" height="150" viewBox="0 0 150 150"><path fill="#372E2C" d="M75 106.3c-10.3 0-18.7-8.4-18.7-18.7 0-10.3 8.4-18.7 18.7-18.7 10.3 0 18.7 8.4 18.7 18.7 0 10.3-8.4 18.7-18.7 18.7zm-8.3-53.4h5.5v5l-5.5-5zm-4.5-11.2c0-.9.7-1.6 1.6-1.6h8.5v7.2H62.2v-5.6zm15.5 11.2h5.5l-5.5 5v-5zm0-12.8h8.5c.9 0 1.6.7 1.6 1.6v5.7H77.7v-7.3zm5.1 20.7l10.6-9.6v-9.6c0-3.9-3.3-7.2-7.2-7.2H63.8c-3.9 0-7.2 3.2-7.2 7.2v9.6l10.6 9.6c-11.6 3.4-20.1 14.1-20.1 26.8 0 15.4 12.5 27.9 27.9 27.9 15.4 0 27.9-12.5 27.9-27.9 0-12.7-8.5-23.4-20.1-26.8z"/><g fill="#372E2C"><path d="M57.3 61.8c.3 0 .6-.2.7-.6.1-.3-.1-.7-.4-.8l-9-3.9-.1-9.9c0-.3-.2-.6-.6-.7-.3-.1-.7.1-.8.4l-3.9 9-9.9.1c-.3 0-.6.2-.7.6-.1.3.1.7.4.8l9 4 .1 9.9c0 .3.2.6.6.7.3.1.7-.1.8-.4l3.9-9 9.9-.2zM36.8 48.9c.1.3.5.5.8.4.3-.1.6-.4.6-.7v-5.1l4.7-2.1c.3-.1.5-.5.4-.8-.1-.3-.4-.6-.7-.6h-5.1l-2.1-4.7c-.1-.3-.5-.5-.8-.4-.3.1-.6.4-.6.7v5.1l-4.7 2.1c-.3.1-.5.5-.4.8.1.3.4.6.7.6h5.1l2.1 4.7z"/></g><g fill="#372E2C"><path d="M116.8 55.5l-9.9-.1-3.9-9c-.1-.3-.5-.5-.8-.4-.3.1-.6.4-.6.7l-.1 9.9-9 3.9c-.3.1-.5.5-.4.8.1.3.4.6.7.6l9.9.1 3.9 9c.1.3.5.5.8.4.3-.1.6-.4.6-.7l.1-9.9 9-4c.3-.1.5-.5.4-.8-.1-.3-.4-.5-.7-.5zM120.7 42.8l-4.7-2.1v-5.1c0-.3-.2-.6-.6-.7-.3-.1-.7.1-.8.4l-2.1 4.7h-5.1c-.3 0-.6.2-.7.6-.1.3.1.7.4.8l4.7 2.1v5.1c0 .3.2.6.6.7.3.1.7-.1.8-.4l2.1-4.7h5.1c.3 0 .6-.2.7-.6.1-.3 0-.7-.4-.8z"/></g></svg>