<svg version="1" xmlns="http://www.w3.org/2000/svg" width="200" height="200" viewBox="0 0 200 200"><g fill="#372E2C"><path d="M76 57.3c-2-1.8-4.7-2.8-7.6-2.8-6.4 0-11.6 5.2-11.6 11.6 0 1.7.4 3.4 1.1 4.9 5-5.7 11.2-10.4 18.1-13.7zM69.4 77.7c2.9-3 6.3-5.5 9.9-7.5 6.1-3.4 13.2-5.3 20.7-5.3 23.8 0 43.1 19.4 43.1 43.1 0 23.8-19.3 43.1-43.1 43.1S56.9 131.8 56.9 108c0-11.8 4.8-22.5 12.5-30.3zM100 160c28.7 0 52-23.2 52-52 0-25.7-18.7-47-43.2-51.2v-9.7h4.5c1.5 0 2.7-1.6 2.7-3.6s-1.2-3.6-2.7-3.6H86.7c-1.5 0-2.7 1.6-2.7 3.6s1.2 3.6 2.7 3.6h4.5v9.7c-4.4.7-8.6 2-12.5 3.8-7.1 3.2-13.4 7.9-18.3 13.8C52.7 83.5 48 95.2 48 108c0 28.8 23.3 52 52 52z"/></g><path fill="#372E2C" d="M100 78.7v27.6L72.2 117c-4.9-19.1 8.5-38.3 27.8-38.3zm-26.1 55.4c1.7 1.7 3.5 3.2 5.5 4.5 1 .7 2 1.3 3 1.8 5.2 2.8 11.2 4.5 17.6 4.5.8 0 1.6 0 2.4-.1 3.9-.3 7.7-1.1 11.2-2.5 1.4-.5 2.8-1.2 4.1-1.9 1-.6 2.1-1.2 3-1.8 2-1.3 3.8-2.8 5.5-4.5 6.7-6.7 10.8-15.9 10.8-26.1 0-10.2-4.1-19.4-10.8-26.1-1.7-1.7-3.5-3.2-5.5-4.5-1-.7-2-1.3-3-1.8-1.3-.7-2.7-1.3-4.1-1.9-3.5-1.4-7.2-2.2-11.2-2.5-.8-.1-1.6-.1-2.4-.1-6.4 0-12.4 1.6-17.6 4.5-1 .6-2.1 1.2-3 1.8-2 1.3-3.8 2.8-5.5 4.5-6.7 6.7-10.8 15.9-10.8 26.1 0 10.2 4.1 19.5 10.8 26.1z"/></svg>