<svg version="1" xmlns="http://www.w3.org/2000/svg" width="150" height="150" viewBox="0 0 150 150"><path fill="#372E2C" d="M70.6 57.5c-.3-.7-1.1-1.1-1.9-.8-4.9 2-8.6 6.2-9.9 11.3-.2.8.3 1.5 1 1.7h.4c.6 0 1.2-.4 1.4-1.1 1.1-4.2 4.1-7.7 8.2-9.3.8-.2 1.1-1.1.8-1.8zm13.9 42.3c0 1.1-.9 1.9-1.9 1.9H67.4c-1.1 0-1.9-.9-1.9-1.9 0-1 .8-1.8 1.8-1.9C66.1 87.2 55 84.8 55 72.1c0-11 9-20 20-20s20 9 20 20c0 12.6-11.1 15-12.3 25.7 1 .1 1.8.9 1.8 2zm9.4-45.6c.5 0 1-.2 1.3-.6l5.4-5.4c.7-.7.7-2 0-2.7s-1.9-.7-2.7 0L92.5 51c-.7.7-.7 1.9 0 2.7.4.4.9.5 1.4.5zm15.4 15.1h-7.6c-1.1 0-1.9.9-1.9 1.9 0 1.1.9 1.9 1.9 1.9h7.6c1.1 0 1.9-.9 1.9-1.9 0-1.1-.9-1.9-1.9-1.9zM95.2 88.7c-.7-.7-1.9-.7-2.7 0s-.7 1.9 0 2.7l5.4 5.4c.4.4.9.6 1.3.6s1-.2 1.3-.6c.7-.7.7-2 0-2.7l-5.3-5.4zm-40.4 0l-5.4 5.4c-.7.7-.7 2 0 2.7.4.4.9.6 1.3.6.5 0 1-.2 1.3-.6l5.4-5.4c.7-.7.7-1.9 0-2.7-.7-.7-1.9-.7-2.6 0zm-4.6-17.5c0-1.1-.9-1.9-1.9-1.9h-7.6c-1.1 0-1.9.9-1.9 1.9 0 1.1.9 1.9 1.9 1.9h7.6c1.1 0 1.9-.9 1.9-1.9zm4.6-17.5c.4.4.9.6 1.3.6.5 0 1-.2 1.3-.6.7-.7.7-1.9 0-2.7L52 45.6c-.7-.7-2-.7-2.7 0s-.7 2 0 2.7l5.5 5.4zM75 46.4c1.1 0 1.9-.9 1.9-1.9v-7.6c0-1.1-.9-1.9-1.9-1.9s-1.9.9-1.9 1.9v7.6c0 1.1.8 1.9 1.9 1.9zm7.6 61H67.4c-1.3 0-2.2 1.2-1.8 2.5.3.8 1.1 1.3 1.9 1.3 1.1 0 2.1.6 2.6 1.6.7 1.3 2 2.2 3.5 2.2h2.8c1.5 0 2.8-.8 3.5-2.2.5-1 1.5-1.6 2.6-1.6.8 0 1.6-.5 1.9-1.3.4-1.3-.5-2.5-1.8-2.5zm1.9-2.9c0 1.1-.9 1.9-1.9 1.9H67.4c-1.1 0-1.9-.9-1.9-1.9 0-1 .9-1.9 1.9-1.9h15.2c1.1 0 1.9.9 1.9 1.9z"/></svg>