<svg version="1" xmlns="http://www.w3.org/2000/svg" width="150" height="150" viewBox="0 0 150 150"><path fill="#372E2C" d="M102.1 112.4H47.9c-.1-.8-.2-1.6-.2-2.2 0-8.2 3.3-16.1 8.9-21.2 2-1.8 3.7-4.1 4.9-6.6h26.9c1.2 2.5 2.8 4.7 4.9 6.6 5.6 5.1 8.9 13 8.9 21.2.1.6 0 1.4-.1 2.2zM61.9 48.6c.8 0 1.6.2 2.1.5 3.8 2.5 6.1 5.6 8 8.3l.6.9c.6.8 1.4 1.4 2.3 1.4 1 0 1.8-.6 2.3-1.4l.7-.9c2-2.8 4.2-5.9 8-8.3.5-.3 1.3-.5 2.1-.5 1.9 0 4.9 1.1 4.9 4.1 0 3.7-6.6 15-6.7 15.1H63.7c0-.1-1-1.8-1-1.8-2.9-5-5.7-9.7-5.7-13.3 0-3 3-4.1 4.9-4.1zM98 83.8c-3.2-2.9-5-7.3-5-12.3v-1.3l.4-.6c3.4-5.8 6.7-11.3 6.7-16.9 0-5-3-8.5-7-10.2v-9.4c0-1.5-1.2-2.6-2.6-2.6-1.5 0-2.6 1.2-2.6 2.6v8.4c-2 0-4 .6-5.6 1.6-3.1 2-5.4 4.4-7.2 6.6-1.8-2.2-4.1-4.5-7.2-6.6-1.6-1-3.5-1.6-5.6-1.6v-8.4c0-1.5-1.1-2.6-2.6-2.6s-2.6 1.2-2.6 2.6v9.4c-3.9 1.6-7 5.2-7 10.2 0 5.6 3.2 11.1 6.7 16.9l.4.6v1.3c0 5-1.8 9.4-5 12.3-7 6.4-11.3 16.3-11.3 26.4 0 1.6.5 4.7.7 6.2.3 1.7 1.7 3 3.5 3h60.3c1.8 0 3.2-1.3 3.5-3 .2-1.5.7-4.6.7-6.2-.3-10.1-4.6-20-11.6-26.4z"/></svg>