<svg version="1" xmlns="http://www.w3.org/2000/svg" width="150" height="150" viewBox="0 0 150 150"><path fill="#372E2C" d="M85 85.1s-8.4 2.8-10 12.5c-1.6-9.7-10-12.5-10-12.5l5.5-5.4c-7.7-3.5-9.8-15.2-9.8-15.2-.4-1.7-.5-2.9-.5-2.9 3.9-.3 17.4-1.4 18.3-5.8 1.3 2.3 8 8.3 10.7 8.7 0 0-2.6 11.6-9.9 15.2l5.7 5.4zm16.9 2.4c-.7-1.6-2.2-2.6-3.7-3.2l-5-2.3V58.2c0-3-.3-5.6-1.1-7.9l6.2-2.2v5.7h-.4c-.3 0-.6.2-.6.5l-.5 4.7c0 .1 0 .3.1.4s.2.2.4.2h4.3c.1 0 .3-.1.4-.2.1-.1.1-.3.1-.4-.1-.9-.2-1.9-.3-2.8l-.2-1.9c0-.3-.3-.5-.6-.5h-.4v-6.5l.2-.1.7-.3c.6-.2 1-.8 1-1.5s-.4-1.2-1-1.5l-25.9-9.4c-.3-.1-.7-.1-1.1 0l-26 9.5c-.6.2-1 .8-1 1.5s.4 1.2 1 1.5l9.4 3.4c-.8 2.4-1.2 5.1-1.2 8.1v23.6l-5 2.3c-1.5.6-3 1.5-3.7 3.2 0 0-11 28-5 28h63.9c6-.1-5-28.1-5-28.1z"/></svg>