<svg version="1" xmlns="http://www.w3.org/2000/svg" width="200" height="200" viewBox="0 0 200 200"><g fill="#372E2C"><path d="M98.9 45.5L55.7 68.9l1.9-.5 51.6-13.1-4.4-8.1c-1.1-2-3.8-2.8-5.9-1.7zM139.8 70l-3.3-12.9c-.5-2-2.3-3.3-4.2-3.3-.3 0-.7 0-1.1.1L111.1 59 67.7 70h72.1zM110.5 125.4v-22c0-4.6 3.7-8.3 8.3-8.3h33.1v-17c0-2.4-2-4.4-4.4-4.4H46.6c-1.6 0-3 .9-3.8 2.2-.4.6-.6 1.4-.6 2.2v72.5c0 2.4 2 4.4 4.4 4.4h100.9c2.4 0 4.4-2 4.4-4.4v-17h-33.1c-4.6.1-8.3-3.7-8.3-8.2z"/></g><path fill="#372E2C" d="M129.7 121.5c-3.9 0-7.1-3.2-7.1-7.1 0-3.9 3.2-7.1 7.1-7.1 3.9 0 7.1 3.2 7.1 7.1 0 3.9-3.2 7.1-7.1 7.1zm25.9-21.9c-.6-.3-1.2-.5-1.9-.6h-35c-2.4 0-4.4 2-4.4 4.4v22c0 2.4 2 4.4 4.4 4.4h35c.7 0 1.3-.3 1.9-.6 1.3-.8 2.1-2.2 2.1-3.8v-22c.1-1.6-.8-3-2.1-3.8z"/></svg>