<svg version="1" xmlns="http://www.w3.org/2000/svg" width="150" height="150" viewBox="0 0 150 150"><path fill="#372E2C" d="M97.4 84.6H86.9l7.8-7.7h10.2l-7.5 7.7zm-38.8-7.8h10.3l-7.7 7.8H50.9l7.7-7.8zM49 71.7l1.6-8.8 9.2-5.9-1.6 8.8-9.2 5.9zm18.5-19.3l9.3-5.8-1.7 8.7-9.3 5.8 1.7-8.7zm16.3-10l9.2-5.9-1.3 8.6-9.4 6 1.5-8.7zm3.4 34.4l-8 7.8H68.9l7.8-7.8h10.5zm18.7-3h-54l1.8-1.3c13.4-7.8 43-26.3 43-26.3 1.2-.7 1.6-2.3.9-3.5L95 36.4c-.7-1.2-2.3-1.6-3.5-1L42.8 65c-1.2.7-1.6 2.3-.9 3.5l4.7 5.1.1 38.9c0 1.4 1.1 2.6 2.6 2.6H106c1.4 0 2.6-1.1 2.6-2.6V76.4c-.1-1.5-1.3-2.6-2.7-2.6z"/></svg>