<?xml version="1.0" encoding="utf-8"?>
<!-- Generator: Adobe Illustrator 16.0.0, SVG Export Plug-In . SVG Version: 6.00 Build 0)  -->
<!DOCTYPE svg PUBLIC "-//W3C//DTD SVG 1.0//EN" "http://www.w3.org/TR/2001/REC-SVG-20010904/DTD/svg10.dtd">
<svg version="1.0" id="Layer_1" xmlns="http://www.w3.org/2000/svg" xmlns:xlink="http://www.w3.org/1999/xlink" x="0px" y="0px"
	 width="150px" height="150px" viewBox="0 0 150 150" enable-background="new 0 0 150 150" xml:space="preserve">
<g>
	<path fill="#372E2C" d="M75,106.3c-10.3,0-18.7-8.4-18.7-18.7c0-10.3,8.4-18.7,18.7-18.7c10.3,0,18.7,8.4,18.7,18.7
		C93.7,97.9,85.3,106.3,75,106.3z M66.7,52.9h5.5v5L66.7,52.9z M62.2,41.7c0-0.9,0.7-1.6,1.6-1.6h8.5v7.2H62.2V41.7z M77.7,52.9h5.5
		l-5.5,5V52.9z M77.7,40.1h8.5c0.9,0,1.6,0.7,1.6,1.6v5.7H77.7V40.1z M82.8,60.8l10.6-9.6v-9.6c0-3.9-3.3-7.2-7.2-7.2H63.8
		c-3.9,0-7.2,3.2-7.2,7.2v9.6l10.6,9.6c-11.6,3.4-20.1,14.1-20.1,26.8c0,15.4,12.5,27.9,27.9,27.9c15.4,0,27.9-12.5,27.9-27.9
		C102.9,74.9,94.4,64.2,82.8,60.8z"/>
</g>
<g>
	<g>
		<path fill="#372E2C" d="M57.3,61.8c0.3,0,0.6-0.2,0.7-0.6c0.1-0.3-0.1-0.7-0.4-0.8l-9-3.9l-0.1-9.9c0-0.3-0.2-0.6-0.6-0.7
			c-0.3-0.1-0.7,0.1-0.8,0.4l-3.9,9l-9.9,0.1c-0.3,0-0.6,0.2-0.7,0.6c-0.1,0.3,0.1,0.7,0.4,0.8l9,4l0.1,9.9c0,0.3,0.2,0.6,0.6,0.7
			c0.3,0.1,0.7-0.1,0.8-0.4l3.9-9L57.3,61.8z"/>
		<path fill="#372E2C" d="M36.8,48.9c0.1,0.3,0.5,0.5,0.8,0.4c0.3-0.1,0.6-0.4,0.6-0.7l0-5.1l4.7-2.1c0.3-0.1,0.5-0.5,0.4-0.8
			c-0.1-0.3-0.4-0.6-0.7-0.6l-5.1,0l-2.1-4.7c-0.1-0.3-0.5-0.5-0.8-0.4c-0.3,0.1-0.6,0.4-0.6,0.7l0,5.1l-4.7,2.1
			c-0.3,0.1-0.5,0.5-0.4,0.8c0.1,0.3,0.4,0.6,0.7,0.6l5.1,0L36.8,48.9z"/>
	</g>
</g>
<g>
	<path fill="#372E2C" d="M116.8,55.5l-9.9-0.1l-3.9-9c-0.1-0.3-0.5-0.5-0.8-0.4c-0.3,0.1-0.6,0.4-0.6,0.7l-0.1,9.9l-9,3.9
		c-0.3,0.1-0.5,0.5-0.4,0.8c0.1,0.3,0.4,0.6,0.7,0.6l9.9,0.1l3.9,9c0.1,0.3,0.5,0.5,0.8,0.4c0.3-0.1,0.6-0.4,0.6-0.7l0.1-9.9l9-4
		c0.3-0.1,0.5-0.5,0.4-0.8C117.4,55.7,117.1,55.5,116.8,55.5z"/>
	<path fill="#372E2C" d="M120.7,42.8l-4.7-2.1l0-5.1c0-0.3-0.2-0.6-0.6-0.7c-0.3-0.1-0.7,0.1-0.8,0.4l-2.1,4.7l-5.1,0
		c-0.3,0-0.6,0.2-0.7,0.6c-0.1,0.3,0.1,0.7,0.4,0.8l4.7,2.1l0,5.1c0,0.3,0.2,0.6,0.6,0.7c0.3,0.1,0.7-0.1,0.8-0.4l2.1-4.7l5.1,0
		c0.3,0,0.6-0.2,0.7-0.6C121.2,43.3,121.1,42.9,120.7,42.8z"/>
</g>
</svg>
