<?xml version="1.0" encoding="utf-8"?>
<!-- Generator: Adobe Illustrator 16.0.0, SVG Export Plug-In . SVG Version: 6.00 Build 0)  -->
<!DOCTYPE svg PUBLIC "-//W3C//DTD SVG 1.0//EN" "http://www.w3.org/TR/2001/REC-SVG-20010904/DTD/svg10.dtd">
<svg version="1.0" id="Layer_1" xmlns="http://www.w3.org/2000/svg" xmlns:xlink="http://www.w3.org/1999/xlink" x="0px" y="0px"
	 width="48px" height="48px" viewBox="0 0 48 48" enable-background="new 0 0 48 48" xml:space="preserve">
<g>
	<g>
		<path fill="#F7F2CA" d="M27.8,25.1c0.3,0.1,0.4,0.3,0.4,0.7v2.9c0,0.2-0.1,0.4-0.2,0.5c-0.1,0.1-0.3,0.2-0.4,0.2h-9.5
			c-0.2,0-0.3-0.1-0.4-0.2c-0.1-0.1-0.2-0.3-0.2-0.5v-2.9c0-0.4,0.1-0.6,0.4-0.7l3.7-1.7c-0.4-0.3-0.8-0.6-1.1-1.1s-0.4-1.1-0.4-1.7
			c0-0.9,0.3-1.6,0.8-2.2c0.5-0.6,1.2-0.9,1.9-0.9c0.8,0,1.4,0.3,1.9,0.9s0.8,1.4,0.8,2.2c0,0.6-0.1,1.2-0.4,1.7s-0.6,0.9-1.1,1.1
			L27.8,25.1z M24,0c3.3,0,6.4,0.6,9.3,1.9c2.9,1.3,5.5,3,7.6,5.1s3.9,4.7,5.1,7.6c1.3,2.9,1.9,6,1.9,9.3c0,2.2-0.3,4.3-0.9,6.4
			s-1.4,4-2.4,5.7c-1,1.8-2.3,3.4-3.7,4.8s-3.1,2.7-4.8,3.7c-1.8,1-3.7,1.8-5.7,2.4S26.2,48,24,48s-4.3-0.3-6.4-0.9
			c-2-0.6-4-1.4-5.7-2.4c-1.8-1-3.4-2.3-4.8-3.7c-1.5-1.5-2.7-3.1-3.7-4.8c-1-1.8-1.8-3.7-2.4-5.7C0.3,28.3,0,26.2,0,24
			c0-2.2,0.3-4.3,0.9-6.4c0.6-2,1.4-4,2.4-5.7C4.3,10.1,5.6,8.5,7,7c1.5-1.5,3.1-2.7,4.8-3.7c1.8-1,3.7-1.8,5.7-2.4
			C19.7,0.3,21.8,0,24,0z M35.3,15c0-0.4-0.2-0.7-0.7-0.7H33v-0.5c0-0.3-0.1-0.6-0.3-0.8s-0.5-0.3-0.7-0.3H13.8
			c-0.3,0-0.5,0.1-0.7,0.3c-0.2,0.2-0.3,0.5-0.3,0.8v20.4c0,0.3,0.1,0.6,0.3,0.8c0.2,0.2,0.5,0.3,0.7,0.3H32c0.3,0,0.5-0.1,0.7-0.3
			s0.3-0.5,0.3-0.8v-0.5h1.6c0.2,0,0.4-0.1,0.5-0.2c0.1-0.1,0.2-0.3,0.2-0.5v-2c0-0.2-0.1-0.4-0.2-0.5c-0.1-0.1-0.3-0.2-0.5-0.2H33
			v-1.9h1.6c0.4,0,0.7-0.2,0.7-0.7v-2c0-0.4-0.2-0.7-0.7-0.7H33V23h1.6c0.2,0,0.4-0.1,0.5-0.2c0.1-0.1,0.2-0.3,0.2-0.5v-2
			c0-0.2-0.1-0.4-0.2-0.5c-0.1-0.1-0.3-0.2-0.5-0.2H33v-1.9h1.6c0.4,0,0.7-0.2,0.7-0.7V15z"/>
	</g>
</g>
</svg>
