<?xml version="1.0" encoding="utf-8"?>
<!-- Generator: Adobe Illustrator 16.0.0, SVG Export Plug-In . SVG Version: 6.00 Build 0)  -->
<!DOCTYPE svg PUBLIC "-//W3C//DTD SVG 1.0//EN" "http://www.w3.org/TR/2001/REC-SVG-20010904/DTD/svg10.dtd">
<svg version="1.0" id="Layer_1" xmlns="http://www.w3.org/2000/svg" xmlns:xlink="http://www.w3.org/1999/xlink" x="0px" y="0px"
	 width="119.8px" height="54.9px" viewBox="0 0 119.8 54.9" enable-background="new 0 0 119.8 54.9" xml:space="preserve">
<polygon fill="#FFFFFF" points="85.6,17 96.4,17 96.4,46.7 96.4,47.2 104.7,47.2 104.7,17 115.5,17 115.5,8.7 85.6,8.7 "/>
<path fill="#FFFFFF" d="M69.5,26.7c0.3-0.4,0.5-0.9,0.7-1.3l0.3-0.6c0.5-1.3,0.8-2.7,0.8-4.2c0-3-1.2-6-3.4-8.2
	c-2.3-2.2-5.2-3.4-8.3-3.4H43.7v38.4H62c3,0,5.9-1.2,8.2-3.4c2.2-2.3,3.4-5.2,3.4-8.2c0-3-1.1-5.8-3-7.9
	C70.3,27.3,69.9,27,69.5,26.7z M65.4,35.2c-0.1,1.1-0.5,2.1-1.2,2.8c-0.6,0.6-1.4,1-2.3,1.2l-9.9,0v-7.9h9.4c1.1,0,2,0.4,2.8,1.1
	C64.9,33.2,65.4,34.2,65.4,35.2z M52,24.2v-7.8h7.1c1,0,2,0.4,2.7,1.1c0.7,0.7,1.1,1.6,1.2,2.7L63,20.6c0,0.2-0.1,0.5-0.1,0.7
	l-0.1,0.2c-0.1,0.2-0.1,0.4-0.2,0.5c-0.7,1.3-1.8,2-3.1,2.1H52z"/>
<path fill="#FFFFFF" d="M23.3,16.2c4.1,0,8,2.2,10.1,5.8l6.4-5.4c-3.8-5.4-9.9-8.7-16.5-8.7c-11.1,0-20.1,9-20.1,20.1
	c0,11.1,9,20.1,20.1,20.1c6.6,0,12.8-3.2,16.5-8.7L33.4,34c-2.1,3.6-5.9,5.8-10.1,5.8c-6.5,0-11.8-5.3-11.8-11.8
	C11.6,21.5,16.8,16.2,23.3,16.2z"/>
</svg>
