<?xml version="1.0" encoding="utf-8"?>
<!-- Generator: Adobe Illustrator 16.0.0, SVG Export Plug-In . SVG Version: 6.00 Build 0)  -->
<!DOCTYPE svg PUBLIC "-//W3C//DTD SVG 1.0//EN" "http://www.w3.org/TR/2001/REC-SVG-20010904/DTD/svg10.dtd">
<svg version="1.0" id="Layer_1" xmlns="http://www.w3.org/2000/svg" xmlns:xlink="http://www.w3.org/1999/xlink" x="0px" y="0px"
	 width="200px" height="200px" viewBox="0 0 200 200" enable-background="new 0 0 200 200" xml:space="preserve">
<g>
	<g>
		<path fill="#372E2C" d="M76,57.3c-2-1.8-4.7-2.8-7.6-2.8c-6.4,0-11.6,5.2-11.6,11.6c0,1.7,0.4,3.4,1.1,4.9
			C62.9,65.3,69.1,60.6,76,57.3z"/>
		<path fill="#372E2C" d="M69.4,77.7c2.9-3,6.3-5.5,9.9-7.5c6.1-3.4,13.2-5.3,20.7-5.3c23.8,0,43.1,19.4,43.1,43.1
			c0,23.8-19.3,43.1-43.1,43.1c-23.8,0-43.1-19.3-43.1-43.1C56.9,96.2,61.7,85.5,69.4,77.7z M100,160c28.7,0,52-23.2,52-52
			c0-25.7-18.7-47-43.2-51.2v-9.7h4.5c1.5,0,2.7-1.6,2.7-3.6c0-2-1.2-3.6-2.7-3.6H86.7c-1.5,0-2.7,1.6-2.7,3.6c0,2,1.2,3.6,2.7,3.6
			h4.5v9.7c-4.4,0.7-8.6,2-12.5,3.8c-7.1,3.2-13.4,7.9-18.3,13.8C52.7,83.5,48,95.2,48,108C48,136.8,71.3,160,100,160z"/>
	</g>
</g>
<g>
	<path fill="#372E2C" d="M100,78.7v27.6L72.2,117C67.3,97.9,80.7,78.7,100,78.7z M73.9,134.1c1.7,1.7,3.5,3.2,5.5,4.5
		c1,0.7,2,1.3,3,1.8c5.2,2.8,11.2,4.5,17.6,4.5c0.8,0,1.6,0,2.4-0.1c3.9-0.3,7.7-1.1,11.2-2.5c1.4-0.5,2.8-1.2,4.1-1.9
		c1-0.6,2.1-1.2,3-1.8c2-1.3,3.8-2.8,5.5-4.5c6.7-6.7,10.8-15.9,10.8-26.1c0-10.2-4.1-19.4-10.8-26.1c-1.7-1.7-3.5-3.2-5.5-4.5
		c-1-0.7-2-1.3-3-1.8c-1.3-0.7-2.7-1.3-4.1-1.9c-3.5-1.4-7.2-2.2-11.2-2.5c-0.8-0.1-1.6-0.1-2.4-0.1c-6.4,0-12.4,1.6-17.6,4.5
		c-1,0.6-2.1,1.2-3,1.8c-2,1.3-3.8,2.8-5.5,4.5c-6.7,6.7-10.8,15.9-10.8,26.1C63.1,118.2,67.2,127.5,73.9,134.1z"/>
</g>
</svg>
