<?xml version="1.0" encoding="utf-8"?>
<!-- Generator: Adobe Illustrator 16.0.0, SVG Export Plug-In . SVG Version: 6.00 Build 0)  -->
<!DOCTYPE svg PUBLIC "-//W3C//DTD SVG 1.0//EN" "http://www.w3.org/TR/2001/REC-SVG-20010904/DTD/svg10.dtd">
<svg version="1.0" id="Layer_1" xmlns="http://www.w3.org/2000/svg" xmlns:xlink="http://www.w3.org/1999/xlink" x="0px" y="0px"
	 width="150px" height="150px" viewBox="0 0 150 150" enable-background="new 0 0 150 150" xml:space="preserve">
<g>
	<path fill="#372E2C" d="M70.6,57.5c-0.3-0.7-1.1-1.1-1.9-0.8c-4.9,2-8.6,6.2-9.9,11.3c-0.2,0.8,0.3,1.5,1,1.7c0.1,0,0.2,0,0.4,0
		c0.6,0,1.2-0.4,1.4-1.1c1.1-4.2,4.1-7.7,8.2-9.3C70.6,59.1,70.9,58.2,70.6,57.5z M84.5,99.8c0,1.1-0.9,1.9-1.9,1.9H67.4
		c-1.1,0-1.9-0.9-1.9-1.9c0-1,0.8-1.8,1.8-1.9C66.1,87.2,55,84.8,55,72.1c0-11,9-20,20-20c11,0,20,9,20,20c0,12.6-11.1,15-12.3,25.7
		C83.7,97.9,84.5,98.7,84.5,99.8z M93.9,54.2c0.5,0,1-0.2,1.3-0.6l5.4-5.4c0.7-0.7,0.7-2,0-2.7s-1.9-0.7-2.7,0L92.5,51
		c-0.7,0.7-0.7,1.9,0,2.7C92.9,54.1,93.4,54.2,93.9,54.2z M109.3,69.3h-7.6c-1.1,0-1.9,0.9-1.9,1.9c0,1.1,0.9,1.9,1.9,1.9h7.6
		c1.1,0,1.9-0.9,1.9-1.9C111.2,70.1,110.3,69.3,109.3,69.3z M95.2,88.7c-0.7-0.7-1.9-0.7-2.7,0s-0.7,1.9,0,2.7l5.4,5.4
		c0.4,0.4,0.9,0.6,1.3,0.6s1-0.2,1.3-0.6c0.7-0.7,0.7-2,0-2.7L95.2,88.7z M54.8,88.7l-5.4,5.4c-0.7,0.7-0.7,2,0,2.7
		c0.4,0.4,0.9,0.6,1.3,0.6c0.5,0,1-0.2,1.3-0.6l5.4-5.4c0.7-0.7,0.7-1.9,0-2.7C56.7,88,55.5,88,54.8,88.7z M50.2,71.2
		c0-1.1-0.9-1.9-1.9-1.9h-7.6c-1.1,0-1.9,0.9-1.9,1.9c0,1.1,0.9,1.9,1.9,1.9h7.6C49.4,73.1,50.2,72.2,50.2,71.2z M54.8,53.7
		c0.4,0.4,0.9,0.6,1.3,0.6c0.5,0,1-0.2,1.3-0.6c0.7-0.7,0.7-1.9,0-2.7l-5.4-5.4c-0.7-0.7-2-0.7-2.7,0s-0.7,2,0,2.7L54.8,53.7z
		 M75,46.4c1.1,0,1.9-0.9,1.9-1.9v-7.6c0-1.1-0.9-1.9-1.9-1.9s-1.9,0.9-1.9,1.9v7.6C73.1,45.6,73.9,46.4,75,46.4z M82.6,107.4H67.4
		c-1.3,0-2.2,1.2-1.8,2.5c0.3,0.8,1.1,1.3,1.9,1.3h0c1.1,0,2.1,0.6,2.6,1.6l0,0c0.7,1.3,2,2.2,3.5,2.2h2.8c1.5,0,2.8-0.8,3.5-2.2
		l0,0c0.5-1,1.5-1.6,2.6-1.6h0c0.8,0,1.6-0.5,1.9-1.3C84.8,108.6,83.9,107.4,82.6,107.4z M84.5,104.5c0,1.1-0.9,1.9-1.9,1.9H67.4
		c-1.1,0-1.9-0.9-1.9-1.9c0-1,0.9-1.9,1.9-1.9h15.2C83.7,102.6,84.5,103.5,84.5,104.5z"/>
</g>
</svg>
