<?xml version="1.0" encoding="utf-8"?>
<!-- Generator: Adobe Illustrator 16.0.0, SVG Export Plug-In . SVG Version: 6.00 Build 0)  -->
<!DOCTYPE svg PUBLIC "-//W3C//DTD SVG 1.0//EN" "http://www.w3.org/TR/2001/REC-SVG-20010904/DTD/svg10.dtd">
<svg version="1.0" id="Layer_1" xmlns="http://www.w3.org/2000/svg" xmlns:xlink="http://www.w3.org/1999/xlink" x="0px" y="0px"
	 width="368.5px" height="327.9px" viewBox="0 0 368.5 327.9" enable-background="new 0 0 368.5 327.9" xml:space="preserve">
<g>
	<defs>
		<rect id="SVGID_1_" width="368.5" height="327.9"/>
	</defs>
	<clipPath id="SVGID_2_">
		<use xlink:href="#SVGID_1_"  overflow="visible"/>
	</clipPath>
	<path clip-path="url(#SVGID_2_)" fill-rule="evenodd" clip-rule="evenodd" fill="#745645" d="M58.3,257.7
		c-2.7,4.4-6.8,8.4-11.8,8.4c-3.6,0-6.1-2.4-6.7-6c-0.6-4.3,1.1-7.3,4.4-9.7c2.9-2.1,5.1-2.8,8.6-3.2c1.6-0.2,3.1-0.2,4.7-0.2
		c0.5,0,0.7-0.1,0.7-0.7c0-3.4,0-6.8,0-10.2c0-0.9-0.2-1.7-0.4-2.5c-0.6-2-2.2-2.4-4.1-2.6c-4.5-0.2-8.1,2.6-6.9,4.5
		c0.4,0.7,1,1.3,1.3,2c0.6,1.8-0.5,3.2-2,4c-1.4,0.8-3.9,0.2-4.7-1.7c-1.1-2.5-0.4-4.7,2.3-6.6c3-2.1,6.3-3.2,9.9-3.1
		c1.8,0,3.7,0.2,5.4,0.8c3.6,1.2,3.5,4.1,3.8,7.9c0.1,1.2,0.1,2.5,0.1,3.8c0,6.5,0,13.1,0,19.6c0,0.3,0,0.6,0,0.9
		c0,1.4,0.4,1.7,1.4,1.8c1.4,0.1,2.6-0.7,2.9-2c0-0.2,0.1-0.5,0.2-0.7c0.1-0.3,0.5-0.6,1-0.4c0.5,0.2,0.3,0.9,0.1,1.2
		c-0.1,0.3-0.3,0.5-0.5,0.7c-2.1,2.6-5.9,2.6-7.4,1.4c-1.5-1.2-1.8-2.8-2.1-4.5C58.4,259.6,58.4,259,58.3,257.7 M58.2,249.2
		c0-0.7-0.1-1-0.9-1.1c-4.8-0.4-9.2,0.9-10.8,3.3c-1.5,2.2-1.8,4.7-1.5,7.2c0.5,4.2,4.2,6,7.9,4.1c2-1,4-4.6,4.5-6.2
		C58.5,253.5,58.2,249.9,58.2,249.2"/>
	<path clip-path="url(#SVGID_2_)" fill="#745645" d="M122.2,264.8c-1.8-0.1-2.9-0.3-3.3-0.7c-0.2-0.2-0.3-1.2-0.3-3.1v-26.8
		c0-1.1,0.1-1.8,0.3-2.1c0.2-0.3,0.7-0.4,1.5-0.5c1.5-0.1,2.2-0.2,2.2-0.5c0-0.3-0.3-0.4-0.8-0.4l-1.9,0c-1.4,0-2.4,0-2.9,0h-6.8
		c-0.4,0-0.6,0.1-0.6,0.4c0,0.2,0.3,0.3,1,0.4c1.7,0.1,2.6,0.3,2.8,0.6c0.2,0.2,0.3,1.1,0.3,2.8v26.4c0,1.6-0.1,2.2-0.4,2.5
		c-0.2,0.3-1,0.4-2.4,0.5c-0.2,0-0.4,0-0.5,0c-2,0-7,0-7.1,0c-1.4-0.1-2.3-0.3-2.6-0.6c-0.2-0.2-0.3-0.8-0.3-2.7v-26.8
		c0-1.1,0.1-1.8,0.3-2.1c0.2-0.3,0.7-0.4,1.5-0.5c1.5-0.1,2.2-0.2,2.2-0.5c0-0.3-0.3-0.4-0.8-0.4l-1.9,0c-1.5,0-2.4,0-2.9,0H92
		c-0.4,0-0.6,0.1-0.6,0.4c0,0.2,0.3,0.3,1,0.4c1.7,0.1,2.6,0.3,2.8,0.6c0.2,0.2,0.3,1.1,0.3,2.8v26.2c0,1.6-0.1,2.4-0.4,2.7
		c-0.2,0.3-1,0.4-2.4,0.5c-0.1,0-0.2,0-0.3,0c-2,0-7.1,0-7.2,0c-1.5-0.1-2.4-0.3-2.8-0.6c-0.2-0.2-0.2-0.8-0.2-2.7v-26.8
		c0-1.1,0.1-1.8,0.3-2.1c0.2-0.3,0.7-0.4,1.6-0.5c1.5-0.1,2.2-0.2,2.2-0.5c0-0.3-0.3-0.4-0.8-0.4l-1.9,0c-1.4,0-2.4,0-2.9,0h-6.8
		c-0.4,0-0.6,0.1-0.6,0.4c0,0.2,0.3,0.3,1,0.4c1.7,0.1,2.6,0.3,2.8,0.6c0.2,0.2,0.3,1.1,0.3,2.8v26.4c0,1.6-0.1,2.6-0.3,2.9
		c-0.2,0.3-1,0.4-2.4,0.5c-0.9,0-1.3,0.2-1.3,0.5c0,0.3,0.2,0.5,0.7,0.5c0.9,0,1.6,0,2,0c0.8-0.1,38.2,0,39,0c4.3,0,6.6,0,6.8,0h0.5
		c0.4,0,0.6-0.1,0.6-0.4C122.7,264.9,122.5,264.8,122.2,264.8"/>
	<path clip-path="url(#SVGID_2_)" fill="#745645" d="M160.4,261.4c-0.9-0.1-0.9,0.7-1,1.1c-0.3,1.3-1.5,2.2-3.1,2
		c-1.4-0.1-1.2-1.3-1.3-2.8c0-0.3,0-0.6,0-0.9c0-9.9,0-19.3,0-29.1c0-0.5,0.1-0.9-0.7-0.9c-0.3,0-0.5,0-0.7,0l0,0h-6.8
		c-0.4,0-0.6,0.1-0.6,0.4c0,0.2,0.3,0.3,1,0.4c1.7,0.1,2.6,0.3,2.8,0.6c0.2,0.2,0.3,1.1,0.3,2.8v12.3l0,0c0,1.8,0,3.6,0,5.4
		c0,1.4-0.2,2.7-0.7,3.9c-0.9,2.3-2.8,5.3-5.3,6c-3.4,1-6.2-0.5-7.1-3.6c-0.2-0.8-0.3-1.8-0.3-2.7c0-8,0-16.4,0-24.4
		c0-0.9-0.2-1.1-1.1-1.1c-0.6,0-1.1,0-1.5,0h-5.7c-0.4,0-0.6,0.1-0.6,0.4c0,0.2,0.3,0.3,1,0.4c1.7,0.1,2.6,0.3,2.8,0.6
		c0.2,0.2,0.3,1.1,0.3,2.8l0,0c0,7.7,0,15.5,0,23.1c0,5.9,5.3,8.5,9.6,7.4c4.3-1.1,6.3-3.8,8.7-7.7c0,4.8,1.2,8.3,5.9,7.8
		c1.8-0.2,3.7-1.5,4.3-2.7C160.8,262.4,161.1,261.6,160.4,261.4"/>
	<path clip-path="url(#SVGID_2_)" fill="#745645" d="M33.1,255.2c0.8,1.8-2.2,6.1-3,7c-1.3,1.5-4.5,4.1-9.5,3.9
		c-4-0.1-7.8-2.2-10.1-4.4c-4.1-4-5.6-8.7-5.6-13.7c0-5.2,1.5-9.5,4.4-12.9c3-3.3,6.8-5,11.5-5c1.7,0,3.1,0.1,4.1,0.4
		c1,0.3,2.3,0.9,3.8,1.7c0.7,0.4,1.3,0.7,1.7,0.7c0.3,0,0.6-0.3,0.8-0.8c0.4-0.9,0.8-1.4,1.1-1.4c0.3,0,0.4,0.1,0.4,0.4
		c0,0.1,0,0.3-0.1,0.7c-0.4,1.6-0.6,4.6-0.6,9c0,0.6,0,1-0.1,1.1c-0.1,0.1-0.2,0.1-0.4,0.1c-0.3,0-0.6-0.3-0.7-1
		c-0.4-2.7-1.1-4.7-1.9-6c-1.6-2.7-4.2-4-7.7-4c-2.7,0-4.8,0.9-6.4,2.7c-2.8,3.2-4.3,8-4.3,14.2c0,5.6,1.2,9.9,3.5,13
		c2,2.7,4.6,3.7,6.7,3.9c1.7,0.2,5.4-0.3,7.5-3.4c1.1-1.6,1.4-3.7,1.8-5.7c0.1-0.8,0.4-1,0.7-1.2C31.1,254.5,32.7,254.2,33.1,255.2"
		/>
	<path clip-path="url(#SVGID_2_)" fill-rule="evenodd" clip-rule="evenodd" fill="#745645" d="M23.6,204.3
		c-2.7,4.4-6.8,8.4-11.8,8.4c-3.6,0-6.1-2.4-6.7-6c-0.6-4.3,1.1-7.3,4.4-9.7c2.9-2.1,5.1-2.8,8.6-3.2c1.5-0.2,3.1-0.2,4.7-0.2
		c0.5,0,0.7-0.1,0.7-0.7c0-3.4,0-6.8,0-10.2c0-0.9-0.2-1.7-0.4-2.5c-0.6-2-2.2-2.4-4.1-2.6c-4.5-0.2-8.1,2.6-6.9,4.5
		c0.4,0.7,1,1.3,1.3,2c0.6,1.8-0.5,3.2-2,4c-1.4,0.8-3.9,0.2-4.7-1.7c-1.1-2.5-0.4-4.7,2.3-6.6c3-2.1,6.3-3.2,9.9-3.1
		c1.8,0,3.7,0.2,5.4,0.8c3.6,1.2,3.5,4.1,3.8,7.9c0.1,1.3,0.1,2.5,0.1,3.8c0,6.5,0,13.1,0,19.6c0,0.3,0,0.6,0,0.9
		c0,1.4,0.4,1.7,1.4,1.8c1.4,0.1,2.6-0.7,2.9-2c0-0.2,0.1-0.5,0.2-0.7c0.1-0.3,0.5-0.6,1-0.4c0.5,0.2,0.3,0.9,0.1,1.2
		c-0.1,0.3-0.3,0.5-0.5,0.7c-2.1,2.6-5.9,2.6-7.4,1.4c-1.5-1.2-1.8-2.8-2.1-4.5C23.7,206.2,23.7,205.6,23.6,204.3 M23.5,195.8
		c0-0.7,0-1-0.9-1.1c-4.8-0.4-9.2,0.9-10.8,3.3c-1.5,2.2-1.8,4.7-1.5,7.2c0.5,4.2,4.2,6,7.9,4.1c2-1,4-4.6,4.5-6.2
		C23.8,200.1,23.5,196.5,23.5,195.8"/>
	<path clip-path="url(#SVGID_2_)" fill="#745645" d="M64.1,181.5c0-0.9,0-2.3-0.2-4.3h-0.6c-0.2,0-0.7,0-1.5,0.1
		c-0.8,0.1-1.6,0.1-2.6,0.1l-20.8,0.1c-0.6,0-0.9,0.2-0.9,0.5c0,0.2,0.5,0.4,1.4,0.5c1.3,0.1,2,0.2,2.3,0.4c0.3,0.2,0.4,0.8,0.4,1.9
		V209c0,1.2-0.1,2-0.4,2.2c-0.2,0.2-1.1,0.3-2.7,0.3c-0.6,0-1,0.2-1,0.5c0,0.3,0.2,0.5,0.6,0.5h0.5c1.1-0.1,3.3-0.2,6.6-0.2
		c0.3,0,0.9,0,1.8,0.1c0.9,0,1.6,0.1,2.2,0.1h0.6c0.6,0,0.9-0.2,0.9-0.5c0-0.2-0.1-0.3-0.3-0.4s-0.8-0.1-1.7-0.1
		c-1,0-1.5-0.2-1.7-0.5c-0.2-0.3-0.3-1.2-0.3-2.6v-29.6c0.9,0,2.2-0.1,3.8-0.1c3.9,0,6.7,0.2,8.3,0.6c1.6,0.4,2.7,1.2,3.3,2.3
		c0.6,1.1,0.9,2.6,1,4.5c0,0.4,0.2,0.7,0.6,0.7c0.4,0,0.6-0.2,0.6-0.8v-1.3v-0.5v-0.7V181.5z"/>
	<path clip-path="url(#SVGID_2_)" fill="#745645" d="M132.7,211.6c0,0.3-0.3,0.5-0.9,0.5h-6.9h-2h-2c-0.7,0-1-0.1-1-0.4
		s0.8-0.4,2.3-0.6c0.8-0.1,1.3-0.2,1.4-0.4c0.1-0.2,0.2-1,0.2-2.3v-14.6h-15.1v14.2c0,1.5,0.1,2.4,0.3,2.7c0.2,0.3,1,0.4,2.4,0.6
		c0.9,0.1,1.3,0.2,1.3,0.5c0,0.3-0.3,0.5-1,0.5h-0.5h-2.5h-1.6h-2.1h-4.2c-0.7,0-1-0.1-1-0.4s0.3-0.4,1-0.5c0.4,0,0.9-0.1,1.4-0.1
		c0.7-0.1,1.2-0.2,1.4-0.5c0.1-0.2,0.2-1.1,0.2-2.8v-26.4c0-1.5-0.1-2.4-0.2-2.7c-0.1-0.3-0.7-0.4-1.6-0.5c-1-0.1-1.6-0.1-1.8-0.2
		c-0.2,0-0.3-0.2-0.3-0.4c0-0.3,0.2-0.4,0.7-0.4c0.1,0,0.4,0,0.9,0.1c0.8,0.1,2.8,0.1,5.9,0.1c1.7,0,2.9,0,3.6-0.1
		c0.2-0.1,0.5-0.1,0.9-0.1c0.6,0,0.9,0.2,0.9,0.5c0,0.3-0.5,0.5-1.6,0.5s-1.7,0.1-2,0.4c-0.2,0.3-0.3,1-0.3,2.4v11.6h15.1v-10.8
		c0-1.8-0.1-2.8-0.4-3.1c-0.3-0.3-1.2-0.5-2.8-0.4c-0.5,0-0.8-0.2-0.8-0.5c0-0.3,0.3-0.5,0.9-0.5h0.2h2.5h2.7h4.1h1.4
		c0.7,0,1.1,0.1,1.1,0.5c0,0.3-0.7,0.5-2.2,0.5c-0.4,0-0.8,0-1,0.1c-0.3,0.1-0.5,0.3-0.6,0.6c-0.1,0.3-0.1,1.1-0.1,2.4v26.7
		c0,1.6,0.1,2.5,0.2,2.8c0.3,0.4,1.3,0.5,2.9,0.5C132.4,211.1,132.7,211.3,132.7,211.6"/>
	<path clip-path="url(#SVGID_2_)" fill="#745645" d="M165.3,186.2c0,0.4-0.2,0.7-0.6,0.7c-0.4,0-0.7-0.4-0.9-1.3
		c-0.1-0.6-0.1-1.2-0.2-1.8c-0.2-1.2-0.6-2.2-1.2-3.1c-0.7-1.1-1.9-1.8-3.5-2.1c-1-0.2-1.9-0.3-2.5-0.2c-1.6,0-2.5,0.1-2.9,0.1v30.3
		c0,1.2,0.3,2,1,2.3c0.3,0.2,1.3,0.3,2.8,0.3c0.4,0,0.6,0.2,0.6,0.4c0,0.3-0.3,0.4-0.8,0.4c-0.3,0-0.5,0-0.7,0
		c-2-0.1-3.4-0.1-4.3-0.1c-1.1,0-2.1,0-3.1,0.1c-1,0-2.2,0.1-3.7,0.1c-0.8,0-1.2-0.1-1.2-0.4c0-0.3,0.7-0.5,2.2-0.5
		c1,0,1.7-0.2,2-0.7c0.2-0.3,0.3-1,0.3-2.1v-30.1c-3.3,0-5.4,0.2-6.2,0.5c-2.1,0.8-3.3,2.8-3.7,6.2c-0.1,1-0.3,1.5-0.7,1.5
		c-0.4,0-0.6-0.4-0.6-1.1c0-0.4,0-0.7,0.1-1.1l0.1-1.2c0.1-1.5,0.3-3.6,0.5-6.1h2.3l10.2,0.1c1.2,0,3.1,0,5.6,0l8.3-0.1
		c0.1,1.9,0.3,4.6,0.7,8.3c0,0.1,0,0.2,0.1,0.4C165.3,186.1,165.3,186.2,165.3,186.2"/>
	<path clip-path="url(#SVGID_2_)" fill="#745645" d="M231.1,186.2c0,0.4-0.2,0.7-0.6,0.7c-0.4,0-0.7-0.4-0.9-1.3
		c-0.1-0.6-0.1-1.2-0.2-1.8c-0.2-1.2-0.6-2.2-1.2-3.1c-0.7-1.1-1.9-1.8-3.5-2.1c-1-0.2-1.9-0.3-2.5-0.2c-1.6,0-2.5,0.1-2.9,0.1v30.3
		c0,1.2,0.3,2,1,2.3c0.3,0.2,1.3,0.3,2.8,0.3c0.4,0,0.6,0.2,0.6,0.4c0,0.3-0.3,0.4-0.8,0.4c-0.3,0-0.5,0-0.7,0
		c-2-0.1-3.4-0.1-4.3-0.1c-1.1,0-2.1,0-3.1,0.1c-1,0-2.2,0.1-3.7,0.1c-0.8,0-1.2-0.1-1.2-0.4c0-0.3,0.7-0.5,2.2-0.5
		c1,0,1.7-0.2,2-0.7c0.2-0.3,0.3-1,0.3-2.1v-30.1c-3.3,0-5.4,0.2-6.2,0.5c-2.1,0.8-3.3,2.8-3.7,6.2c-0.1,1-0.3,1.5-0.7,1.5
		c-0.4,0-0.6-0.4-0.6-1.1c0-0.4,0-0.7,0.1-1.1l0.1-1.2c0.1-1.5,0.3-3.6,0.5-6.1h2.3l10.2,0.1c1.2,0,3.1,0,5.6,0l8.3-0.1
		c0.1,1.9,0.3,4.6,0.7,8.3c0,0.1,0,0.2,0,0.4C231.1,186.1,231.1,186.2,231.1,186.2"/>
	<path clip-path="url(#SVGID_2_)" fill="#745645" d="M260.7,202.9c0,3.4-1.6,5.9-4.7,7.6c-1.5,0.8-3.7,1.3-6.5,1.5c-0.8,0-3,0-6.8,0
		h-6.1c-0.6,0-0.9-0.1-0.9-0.4c0-0.3,0.5-0.4,1.6-0.4c1.2,0,1.9-0.1,2.1-0.4c0.2-0.3,0.3-1,0.3-2.3v-27.1c0-1.5-0.1-2.3-0.2-2.6
		c-0.2-0.4-1.1-0.6-2.6-0.7c-0.9,0-1.4-0.2-1.4-0.5c0-0.3,0.4-0.5,1.3-0.5h0.6c0.4,0.1,0.7,0.1,1,0.1h9.8c3.6,0,6.3,0.6,8.1,1.8
		c2.1,1.4,3.1,3.4,3.1,6c0,2.3-0.9,4.1-2.6,5.6c-1.7,1.5-4.1,2.4-7.2,2.7v0.3c3,0.2,5.4,0.8,7.1,1.9
		C259.4,197.3,260.7,199.7,260.7,202.9 M253.9,185.6c0-3.2-0.7-5.3-2.2-6.4c-0.8-0.6-2.2-0.9-4.4-0.9c-0.6,0-1.5,0-2.7,0.2v14.5h0.5
		l2.8-0.1c1.9-0.1,3.4-0.7,4.4-2C253.4,189.6,253.9,187.9,253.9,185.6 M255.4,202.4c0-4.2-1.7-6.8-5.1-7.8c-1-0.3-2.9-0.5-5.6-0.5
		v14.9c0,1,0.1,1.5,0.3,1.7c0.3,0.2,1.3,0.3,2.8,0.3c2.3,0,4.1-0.7,5.5-2.2C254.7,207.4,255.4,205.2,255.4,202.4"/>
	<path clip-path="url(#SVGID_2_)" fill="#745645" d="M299.3,194.9c0,5-1.5,9.2-4.5,12.6c-3,3.4-6.7,5.2-11,5.2
		c-4.6,0-8.5-1.7-11.6-5.2c-3.1-3.5-4.7-7.8-4.7-12.9c0-5.2,1.5-9.5,4.5-12.8c3-3.3,6.9-5,11.6-5c4.4,0,8.2,1.7,11.2,5.2
		C297.8,185.4,299.3,189.7,299.3,194.9 M293.7,195.1c0-6.1-1.3-10.9-3.8-14.3c-1.6-2.1-3.8-3.2-6.6-3.2c-2.7,0-4.7,0.8-6.2,2.5
		c-2.7,3-4.1,7.9-4.1,14.7c0,5.4,0.9,9.6,2.8,12.6c1.9,3,4.5,4.5,7.9,4.5c3.2,0,5.6-1.4,7.2-4.2
		C292.8,204.5,293.7,200.3,293.7,195.1"/>
	<path clip-path="url(#SVGID_2_)" fill="#745645" d="M198.1,201.7c0.8,1.8-2.2,6.1-3,7c-1.3,1.5-4.5,4.1-9.5,3.9
		c-4-0.1-7.8-2.2-10.1-4.4c-4.1-4-5.6-8.7-5.6-13.7c0-5.2,1.5-9.5,4.4-12.9c3-3.3,6.8-5,11.5-5c1.7,0,3.1,0.1,4.1,0.4
		c1,0.3,2.3,0.9,3.8,1.7c0.7,0.4,1.3,0.7,1.7,0.7c0.3,0,0.6-0.3,0.9-0.8c0.4-0.9,0.8-1.4,1.1-1.4c0.3,0,0.4,0.1,0.4,0.4
		c0,0.1,0,0.4-0.1,0.7c-0.4,1.6-0.5,4.6-0.5,9c0,0.6,0,1-0.2,1.1c-0.1,0.1-0.2,0.2-0.4,0.2c-0.3,0-0.6-0.3-0.7-1
		c-0.4-2.7-1.1-4.7-1.9-6c-1.6-2.7-4.2-4-7.7-4c-2.7,0-4.8,0.9-6.4,2.7c-2.8,3.2-4.3,8-4.3,14.2c0,5.6,1.2,9.9,3.5,13
		c2,2.7,4.6,3.7,6.7,3.9c1.7,0.2,5.4-0.3,7.5-3.4c1.1-1.6,1.4-3.7,1.8-5.7c0.1-0.8,0.4-1,0.7-1.2C196.1,201,197.6,200.6,198.1,201.7
		"/>
	<path clip-path="url(#SVGID_2_)" fill-rule="evenodd" clip-rule="evenodd" fill="#745645" d="M88.2,150.7
		c-2.7,4.4-6.8,8.4-11.8,8.4c-3.6,0-6.1-2.4-6.7-6c-0.6-4.3,1.1-7.3,4.4-9.7c2.9-2.1,5.1-2.8,8.6-3.2c1.6-0.2,3.1-0.2,4.7-0.2
		c0.5,0,0.7-0.1,0.7-0.7c0-3.4,0-6.8,0-10.2c0-0.9-0.2-1.7-0.4-2.5c-0.6-2-2.2-2.4-4.1-2.6c-4.5-0.2-8.1,2.6-6.9,4.5
		c0.4,0.7,1,1.3,1.3,2c0.6,1.8-0.5,3.2-2,4c-1.4,0.8-3.9,0.2-4.7-1.7c-1.1-2.5-0.4-4.7,2.3-6.6c3-2.1,6.3-3.2,9.9-3.1
		c1.8,0,3.7,0.2,5.4,0.8c3.6,1.2,3.5,4.1,3.8,7.9c0.1,1.3,0.1,2.5,0.1,3.8c0,6.5,0,13.1,0,19.6c0,0.3,0,0.6,0,0.9
		c0,1.4,0.4,1.7,1.4,1.8c1.4,0.1,2.6-0.7,2.9-2c0-0.2,0.1-0.5,0.2-0.7c0.1-0.3,0.5-0.6,1-0.4c0.5,0.2,0.3,0.9,0.1,1.2
		c-0.1,0.3-0.3,0.5-0.5,0.7c-2.1,2.6-5.9,2.6-7.4,1.4c-1.5-1.2-1.8-2.8-2.1-4.5C88.3,152.6,88.4,152,88.2,150.7 M88.2,142.2
		c0-0.7,0-1-0.9-1.1c-4.8-0.4-9.2,0.9-10.8,3.3c-1.5,2.2-1.8,4.7-1.5,7.2c0.5,4.2,4.2,6,7.9,4.1c2-1,4-4.6,4.5-6.2
		C88.5,146.5,88.2,142.9,88.2,142.2"/>
	<path clip-path="url(#SVGID_2_)" fill="#745645" d="M63.2,149.4c0,3.4-1.6,5.9-4.7,7.6c-1.5,0.8-3.7,1.3-6.5,1.5c-0.8,0-3,0-6.8,0
		h-6.1c-0.6,0-0.9-0.1-0.9-0.4c0-0.3,0.5-0.4,1.6-0.4c1.2,0,1.9-0.1,2.1-0.4c0.2-0.3,0.3-1,0.3-2.3v-27.1c0-1.5-0.1-2.3-0.2-2.6
		c-0.2-0.4-1.1-0.6-2.6-0.6c-0.9,0-1.4-0.2-1.4-0.5c0-0.3,0.4-0.5,1.3-0.5h0.6c0.4,0.1,0.7,0.1,1,0.1h9.8c3.6,0,6.3,0.6,8.1,1.8
		c2.1,1.4,3.1,3.4,3.1,6c0,2.3-0.9,4.1-2.6,5.6c-1.7,1.5-4.1,2.4-7.2,2.7v0.3c3,0.2,5.4,0.8,7.1,1.9
		C61.9,143.7,63.2,146.1,63.2,149.4 M56.5,132.1c0-3.2-0.7-5.3-2.2-6.4c-0.8-0.6-2.2-0.9-4.4-0.9c-0.6,0-1.5,0-2.7,0.2v14.5h0.4
		l2.8-0.1c1.9-0.1,3.4-0.7,4.4-2C56,136.1,56.5,134.3,56.5,132.1 M57.9,148.8c0-4.2-1.7-6.8-5.1-7.8c-1-0.3-2.9-0.4-5.6-0.4v14.9
		c0,1,0.1,1.5,0.3,1.7c0.3,0.2,1.3,0.4,2.8,0.4c2.3,0,4.1-0.7,5.5-2.2C57.3,153.8,57.9,151.7,57.9,148.8"/>
	<path clip-path="url(#SVGID_2_)" fill="#745645" d="M163.2,150.4c0,0.1,0,1-0.1,2.5c-0.1,1.5-0.1,2.9-0.1,4.3v1.7
		c-3.3-0.2-9.8-0.3-19.4-0.3h-3.5h-2.3h-0.5c-0.6,0-1-0.1-1-0.4c0-0.2,0.1-0.3,0.3-0.3c0.1,0,0.7,0,1.9-0.1c0.9-0.1,1.4-0.2,1.6-0.6
		c0.2-0.3,0.3-1.1,0.3-2.4v-28.3c0-1-0.1-1.5-0.4-1.7c-0.3-0.2-1.2-0.3-2.7-0.3c-0.5,0-0.8-0.1-0.8-0.4c0-0.3,0.4-0.4,1.1-0.4h8.6
		h5.7h7c1,0,1.9-0.1,2.8-0.2c0.1,1.4,0.2,3.4,0.5,6l0.2,2.2c0,0.2,0.1,0.4,0.1,0.7c0,0.3-0.2,0.5-0.5,0.5c-0.4,0-0.6-0.4-0.8-1.3
		c-0.6-3-1.7-4.9-3.1-5.7c-1.1-0.6-3.9-0.9-8.4-0.9h-4.1v14.7h1.2c3.7,0,6-0.3,6.8-0.9c0.8-0.6,1.4-2.2,1.7-5
		c0.1-0.7,0.2-1.1,0.6-1.1c0.4,0,0.6,0.3,0.6,0.9c0,0.6,0,1.5-0.1,2.7c-0.1,1.2-0.1,2.1-0.1,2.7c0,3.6,0.1,6,0.2,7.4
		c0,0.3,0,0.6,0,0.9c0,0.4-0.2,0.7-0.5,0.7c-0.2,0-0.4-0.1-0.5-0.4c-0.1-0.3-0.2-1.2-0.4-2.8c-0.3-2-1.1-3.2-2.4-3.7
		c-0.6-0.2-2.2-0.3-4.7-0.3h-2.2v16.8c7.3,0,11.7-0.1,12.9-0.4c2.2-0.5,3.5-2.6,3.8-6.3c0.1-0.8,0.3-1.2,0.7-1.2
		C163,149.4,163.2,149.7,163.2,150.4"/>
	<path clip-path="url(#SVGID_2_)" fill="#745645" d="M94.8,204c0,0.1,0,1-0.1,2.5c-0.1,1.5-0.1,2.9-0.1,4.3v1.7
		c-3.3-0.2-9.8-0.3-19.4-0.3h-3.5h-2.3h-0.5c-0.6,0-1-0.1-1-0.4c0-0.2,0.1-0.3,0.3-0.3c0.1,0,0.7,0,1.9-0.1c0.9-0.1,1.4-0.2,1.6-0.6
		c0.2-0.3,0.3-1.1,0.3-2.4v-28.3c0-1-0.1-1.5-0.4-1.7c-0.3-0.2-1.2-0.3-2.7-0.3c-0.5,0-0.8-0.1-0.8-0.4c0-0.3,0.4-0.4,1.1-0.4h8.6
		h5.7h7c1,0,1.9-0.1,2.8-0.2c0.1,1.4,0.2,3.4,0.5,6l0.2,2.2c0,0.2,0.1,0.4,0.1,0.7c0,0.3-0.2,0.5-0.5,0.5c-0.4,0-0.6-0.4-0.8-1.3
		c-0.6-3-1.7-4.9-3.1-5.7c-1.1-0.6-3.9-0.9-8.4-0.9H77v14.7h1.2c3.7,0,6-0.3,6.8-0.9c0.8-0.6,1.4-2.2,1.7-5c0.1-0.7,0.3-1.1,0.6-1.1
		c0.4,0,0.6,0.3,0.6,0.9c0,0.6,0,1.5-0.1,2.7c-0.1,1.2-0.1,2.1-0.1,2.7c0,3.6,0.1,6,0.2,7.4c0,0.3,0,0.6,0,0.9
		c0,0.4-0.2,0.7-0.5,0.7c-0.2,0-0.4-0.1-0.5-0.4c-0.1-0.3-0.2-1.2-0.4-2.8c-0.3-2-1.1-3.2-2.4-3.7c-0.6-0.2-2.2-0.3-4.7-0.3H77V211
		c7.4,0,11.7-0.1,12.9-0.4c2.2-0.5,3.5-2.6,3.8-6.3c0.1-0.8,0.3-1.2,0.6-1.2C94.6,202.9,94.8,203.3,94.8,204"/>
	<path clip-path="url(#SVGID_2_)" fill="#745645" d="M231.9,158.1c0,0.3-0.3,0.5-0.9,0.5H224h-2h-2c-0.7,0-1-0.1-1-0.4
		c0-0.3,0.8-0.4,2.3-0.5c0.8-0.1,1.3-0.2,1.4-0.4c0.1-0.2,0.2-1,0.2-2.3v-14.6h-15.1v14.2c0,1.5,0.1,2.4,0.4,2.7
		c0.2,0.3,1,0.4,2.4,0.6c0.9,0.1,1.3,0.2,1.3,0.5c0,0.3-0.3,0.5-1,0.5h-0.5h-2.5h-1.6h-2.1H200c-0.7,0-1-0.1-1-0.4
		c0-0.3,0.3-0.4,1-0.5c0.4,0,0.9-0.1,1.4-0.1c0.7-0.1,1.2-0.2,1.4-0.5c0.1-0.2,0.1-1.1,0.1-2.8v-26.4c0-1.5-0.1-2.4-0.2-2.7
		c-0.2-0.3-0.7-0.4-1.6-0.4c-1-0.1-1.6-0.1-1.8-0.2c-0.2,0-0.3-0.2-0.3-0.4c0-0.3,0.2-0.4,0.7-0.4c0.1,0,0.4,0,0.9,0.1
		c0.8,0.1,2.8,0.1,5.9,0.1c1.7,0,2.9,0,3.6-0.1c0.2,0,0.5-0.1,0.9-0.1c0.6,0,0.9,0.2,0.9,0.5c0,0.3-0.5,0.5-1.6,0.5
		c-1.1,0-1.7,0.1-2,0.4c-0.2,0.3-0.3,1-0.3,2.4V139H223v-10.8c0-1.8-0.1-2.8-0.4-3.1c-0.3-0.3-1.2-0.5-2.8-0.4
		c-0.5,0-0.8-0.2-0.8-0.5c0-0.3,0.3-0.5,0.8-0.5h0.3h2.5h2.7h4.1h1.4c0.7,0,1.1,0.2,1.1,0.5s-0.7,0.5-2.2,0.5c-0.4,0-0.8,0-1,0.1
		c-0.3,0.1-0.5,0.3-0.6,0.6c-0.1,0.3-0.1,1.1-0.1,2.4v26.7c0,1.6,0.1,2.5,0.2,2.8c0.3,0.4,1.3,0.6,2.9,0.6
		C231.6,157.6,231.9,157.7,231.9,158.1"/>
	<path clip-path="url(#SVGID_2_)" fill="#745645" d="M268.7,141.3c0,5-1.5,9.2-4.5,12.6c-3,3.4-6.7,5.2-11,5.2
		c-4.6,0-8.5-1.7-11.6-5.2c-3.1-3.5-4.7-7.8-4.7-12.9c0-5.2,1.5-9.5,4.5-12.8c3-3.3,6.9-5,11.6-5c4.4,0,8.2,1.7,11.2,5.2
		C267.2,131.9,268.7,136.2,268.7,141.3 M263.1,141.6c0-6.1-1.3-10.9-3.8-14.3c-1.6-2.1-3.8-3.2-6.6-3.2c-2.7,0-4.7,0.8-6.2,2.5
		c-2.7,3-4.1,7.9-4.1,14.7c0,5.4,0.9,9.6,2.8,12.6c1.9,3,4.5,4.5,7.9,4.5c3.2,0,5.6-1.4,7.2-4.2
		C262.2,150.9,263.1,146.8,263.1,141.6"/>
	<path clip-path="url(#SVGID_2_)" fill="#745645" d="M300.5,150.4c0,0.1,0,1-0.1,2.5c-0.1,1.5-0.1,2.9-0.1,4.3v1.7
		c-3.3-0.2-9.8-0.3-19.4-0.3h-3.5h-2.3h-0.5c-0.6,0-1-0.1-1-0.4c0-0.2,0.1-0.3,0.3-0.3c0.1,0,0.7,0,1.9-0.1c0.9-0.1,1.4-0.2,1.6-0.6
		c0.2-0.3,0.3-1.1,0.3-2.4v-28.3c0-1-0.1-1.5-0.4-1.7c-0.3-0.2-1.2-0.3-2.7-0.3c-0.5,0-0.8-0.1-0.8-0.4c0-0.3,0.4-0.4,1.1-0.4h8.6
		h5.7h7c1,0,1.9-0.1,2.8-0.2c0.1,1.4,0.2,3.4,0.5,6l0.2,2.2c0,0.2,0,0.4,0,0.7c0,0.3-0.1,0.5-0.5,0.5c-0.4,0-0.6-0.4-0.8-1.3
		c-0.6-3-1.7-4.9-3.1-5.7c-1.1-0.6-3.9-0.9-8.4-0.9h-4.1v14.7h1.2c3.7,0,6-0.3,6.8-0.9c0.8-0.6,1.4-2.2,1.7-5
		c0.1-0.7,0.2-1.1,0.6-1.1c0.4,0,0.6,0.3,0.6,0.9c0,0.6,0,1.5-0.1,2.7c-0.1,1.2-0.1,2.1-0.1,2.7c0,3.6,0.1,6,0.2,7.4
		c0,0.3,0,0.6,0,0.9c0,0.4-0.2,0.7-0.5,0.7c-0.2,0-0.4-0.1-0.5-0.4c-0.1-0.3-0.2-1.2-0.4-2.8c-0.3-2-1.1-3.2-2.4-3.7
		c-0.6-0.2-2.2-0.3-4.7-0.3h-2.2v16.8c7.4,0,11.7-0.1,12.9-0.4c2.2-0.5,3.5-2.6,3.8-6.3c0.1-0.8,0.3-1.2,0.7-1.2
		C300.3,149.4,300.5,149.7,300.5,150.4"/>
	<path clip-path="url(#SVGID_2_)" fill="#745645" d="M178.1,124.8c0.9,0-2.2,0-0.6,0c3.9,0,6.7,0.2,8.3,0.6c1.6,0.4,2.7,1.2,3.3,2.3
		c0.6,1.1,0.9,2.6,1,4.5c0,0.4,0.2,0.7,0.6,0.7c0.4,0,0.6-0.3,0.6-0.8v-1.3v-0.4v-0.7v-2c0-0.9,0-2.3-0.1-4.3h-0.6
		c-0.2,0-0.7,0-1.4,0.1c-0.8,0.1-1.6,0.1-2.6,0.1l-16.4,0.2c-0.6,0-0.9,0.1-0.9,0.5c0,0.2,0.5,0.4,1.4,0.5c1.3,0.1,2,0.2,2.3,0.4
		c0.2,0.2,0.4,0.8,0.4,1.9"/>
	<path clip-path="url(#SVGID_2_)" fill="#745645" d="M182.9,139.8c2.2,0.2,5.4,1.4,7.1,2.4c2.5,1.6,3.8,4,3.8,7.3
		c0,3.4-1.6,5.9-4.7,7.6c-1.5,0.8-3.7,1.3-6.5,1.5c-0.8,0-3,0-6.8,0l5.1-0.9c2.3,0,4.1-0.9,5.5-2.3c1.4-1.5,2.1-3.6,2.1-6.5
		c0-4.2-1.7-6.8-5.1-7.8c-1-0.3-2.9-0.3-5.6-0.3l0-1.1C177.8,139.6,180.5,139.6,182.9,139.8"/>
	<path clip-path="url(#SVGID_2_)" fill="#745645" d="M186.5,155.6c-1.1,1.4-3.2,2.1-5.5,2.1c-1.4,0-2.3-0.2-2.8-0.7
		c-0.2-0.2-0.3-0.7-0.3-1.4h0v-18.1h0V127c0-0.8-0.1-2,0.1-2.3l-7.2-1.1h-0.7c-1,0-1.5,0.2-1.5,0.5c0,0.2,0.4,0.4,1.1,0.4
		c1.6,0,2.5,0.1,2.7,0.5c0.3,0.1,0.4,0.5,0.5,1v29.6c0,1-0.3,1.7-0.9,1.9c-0.3,0.1-0.9,0.2-1.8,0.2h-0.5h-0.4
		c-0.5,0-0.8,0.1-0.8,0.4c0,0.3,0.5,0.4,1.4,0.4h11c3.8,0,6.6-0.7,8.4-2c0.4-0.3,0.8-0.6,1.1-1H186.5z"/>
	<path clip-path="url(#SVGID_2_)" fill="#745645" d="M33.1,148.1c0.8,1.8-2.2,6.1-3,7c-1.3,1.5-4.5,4.1-9.5,3.9
		c-4-0.1-7.8-2.2-10.1-4.4c-4.1-4-5.6-8.7-5.6-13.7c0-5.2,1.5-9.5,4.4-12.9c3-3.3,6.8-5,11.5-5c1.7,0,3.1,0.1,4.1,0.4
		c1,0.3,2.3,0.9,3.8,1.7c0.7,0.4,1.3,0.6,1.7,0.6c0.3,0,0.6-0.3,0.8-0.8c0.4-0.9,0.8-1.4,1.1-1.4c0.3,0,0.4,0.1,0.4,0.4
		c0,0.1,0,0.4-0.1,0.7c-0.4,1.6-0.6,4.6-0.6,9c0,0.6,0,1-0.1,1.1c-0.1,0.1-0.2,0.2-0.4,0.2c-0.3,0-0.6-0.3-0.7-1
		c-0.4-2.7-1.1-4.7-1.9-6c-1.6-2.7-4.2-4-7.7-4c-2.7,0-4.8,0.9-6.4,2.7c-2.8,3.2-4.3,8-4.3,14.2c0,5.6,1.2,9.9,3.5,13
		c2,2.7,4.6,3.7,6.7,3.9c1.7,0.2,5.4-0.3,7.5-3.4c1.1-1.6,1.4-3.7,1.8-5.7c0.1-0.8,0.4-1,0.7-1.2C31.1,147.4,32.7,147.1,33.1,148.1"
		/>
	<path clip-path="url(#SVGID_2_)" fill="#745645" d="M121.7,141.1v-14.3c0-2,0-2-2-2c-1.4,0-8.3,0.1-9.3,0.1v2.3
		c-0.1,1.1-0.2,1.3-0.4,2c-0.1,0.3-0.1,0.9-0.4,0.8c-0.3,0-0.3-0.3-0.3-0.5c0-1.7,0-3.5,0-5.2c0-0.8,0.7-0.7,1.2-0.7
		c2.2,0,4.4,0,6.6,0h8.7c0.3,0,0.7,0,1,0c0.2,0,0,1.4,0,4.4c0,8.9,0,17.9,0,26.8c0,2.4,0.2,2.6,2.6,2.8c0.4,0,1-0.1,1,0.5
		c0,0.5-0.6,0.4-0.9,0.4c-3.1,0-7.3-0.4-10.4-0.4c-0.4,0-1.7,0.4-1.7-0.1c0-0.5,1.3-0.3,1.7-0.3c2.8-0.2,2.8-0.2,2.8-3V141.1z"/>
	<path clip-path="url(#SVGID_2_)" fill="#745645" d="M102.6,159.2l-0.4-1.2l0.1,0c1.5-0.5,2.6-1,3.2-1.6c1.7-1.5,3.7-8.1,3.5-30.3
		c0-0.5,0-0.8,0-1.1h1.3c0,0.3,0,0.6,0,1.1c0.1,18.5-0.9,28.9-3.7,31.5c-1.1,1-3.2,1.4-3.9,1.6L102.6,159.2z"/>
	<path clip-path="url(#SVGID_2_)" fill="#745645" d="M109.1,126.5c0-1-0.1-1.6-0.4-1.7c-0.3-0.2-1.2-0.3-2.7-0.3
		c-0.5,0-0.8-0.1-0.8-0.4c0-0.3,0.4-0.4,1.1-0.4h4.6"/>
	<path clip-path="url(#SVGID_2_)" fill="#745645" d="M126.7,126.5c0-1,0.1-1.6,0.4-1.7c0.3-0.2,1.2-0.3,2.7-0.3
		c0.5,0,0.8-0.1,0.8-0.4c0-0.3-0.4-0.4-1.1-0.4H125"/>
	<path clip-path="url(#SVGID_2_)" fill="#745645" d="M112.6,158.6c-4,0-6.5,0.3-7.3,0.6c-2.1,0.8-3.4,2.8-3.7,6.2
		c-0.1,1-0.3,1.5-0.7,1.5c-0.4,0-0.6-0.4-0.6-1.1c0-0.4,0-0.7,0.1-1.1l0.1-1.2c0.1-1.5,0.3-3.6,0.5-6.1h2.3l12,0.2
		c1.2,0,3.1,0,5.6,0l10.3-0.2c0.1,1.9,0.3,4.7,0.7,8.3c0,0.1,0,0.2,0.1,0.4c0,0.2,0,0.2,0,0.3c0,0.4-0.2,0.7-0.6,0.7
		c-0.4,0-0.7-0.4-0.9-1.3c-0.1-0.6-0.1-1.2-0.2-1.8c-0.2-1.2-0.6-2.2-1.2-3.1c-0.7-1.1-1.9-1.8-3.5-2.1c-1-0.2-3.9-0.3-4.5-0.2
		C119,158.6,116.6,158.6,112.6,158.6"/>
	<path clip-path="url(#SVGID_2_)" fill="#745645" d="M62.5,311.1c0,0.1,0,1-0.1,2.5c-0.1,1.5-0.1,2.9-0.1,4.3v1.7
		c-3.3-0.2-9.8-0.3-19.4-0.3h-3.5h-2.3h-0.5c-0.6,0-1-0.1-1-0.4c0-0.2,0.1-0.3,0.3-0.3c0.1,0,0.7,0,1.9-0.1c0.9-0.1,1.4-0.3,1.6-0.6
		c0.2-0.3,0.3-1.1,0.3-2.4v-28.3c0-1-0.1-1.5-0.4-1.7c-0.3-0.2-1.2-0.3-2.7-0.3c-0.5,0-0.8-0.1-0.8-0.4c0-0.3,0.4-0.4,1.1-0.4h8.6
		h5.7h7c1,0,1.9-0.1,2.8-0.2c0.1,1.4,0.2,3.4,0.5,6l0.2,2.2c0,0.2,0.1,0.4,0.1,0.7c0,0.3-0.1,0.5-0.4,0.5c-0.4,0-0.6-0.4-0.8-1.3
		c-0.6-3-1.7-4.9-3.1-5.8c-1.1-0.6-3.9-0.9-8.4-0.9h-4.1v14.7h1.2c3.7,0,6-0.3,6.8-0.9c0.8-0.6,1.4-2.2,1.7-5
		c0.1-0.7,0.2-1.1,0.6-1.1c0.4,0,0.6,0.3,0.6,0.9c0,0.6,0,1.5-0.1,2.7c-0.1,1.2-0.1,2.1-0.1,2.7c0,3.6,0.1,6,0.2,7.4
		c0,0.3,0,0.6,0,0.9c0,0.4-0.2,0.7-0.5,0.7c-0.2,0-0.4-0.1-0.5-0.4c-0.1-0.3-0.2-1.2-0.4-2.8c-0.3-2-1.1-3.2-2.4-3.7
		c-0.6-0.2-2.2-0.3-4.7-0.3h-2.2V318c7.4,0,11.7-0.1,12.9-0.4c2.2-0.5,3.5-2.6,3.8-6.3c0.1-0.8,0.3-1.2,0.7-1.2
		C62.3,310,62.5,310.4,62.5,311.1"/>
	<path clip-path="url(#SVGID_2_)" fill="#745645" d="M91.5,292.7c0,3.2-1.4,5.8-4.2,7.6c-1.7,1.1-3.9,1.7-6.6,1.7
		c-1.1,0-2.4-0.1-3.9-0.4v14.2c0,0.8,0,1.3,0.1,1.5c0.2,0.5,0.5,0.8,1.1,0.9c1,0.1,1.9,0.2,2.8,0.2c0.4,0,0.6,0.1,0.6,0.4
		c0,0.3-0.2,0.5-0.7,0.5h-0.5H69.9h-0.7c-1,0-1.5-0.2-1.5-0.5c0-0.2,0.4-0.4,1.1-0.4c1.6,0,2.5-0.2,2.7-0.5c0.3-0.1,0.4-0.5,0.5-1
		v-29.6c0-1-0.3-1.7-0.9-1.9c-0.3-0.1-0.9-0.2-1.8-0.2h-0.5h-0.4c-0.5,0-0.8-0.1-0.8-0.4c0-0.3,0.5-0.4,1.4-0.4h11
		c3.8,0,6.6,0.7,8.4,2C90.5,287.8,91.5,289.9,91.5,292.7 M86.3,292.7c0-5-2.1-7.6-6.3-7.6c-1.4,0-2.3,0.2-2.8,0.7
		c-0.2,0.2-0.3,0.7-0.3,1.6v13.4c0.3,0,0.6,0,0.9,0c2.2,0,4.1-0.5,5.6-1.5C85.3,298.2,86.3,296,86.3,292.7"/>
	<path clip-path="url(#SVGID_2_)" fill="#745645" d="M123.9,288.6c0-0.9,0-2.3-0.1-4.3h-0.5c-0.2,0-0.7,0-1.5,0.1
		c-0.8,0.1-1.6,0.1-2.6,0.1l-20.8,0.2c-0.6,0-0.8,0.1-0.8,0.5c0,0.2,0.4,0.4,1.4,0.5c1.3,0.1,2,0.2,2.3,0.4c0.2,0.2,0.4,0.8,0.4,1.9
		V316c0,1.2-0.1,2-0.4,2.2c-0.2,0.2-1.1,0.3-2.7,0.3c-0.6,0-1,0.2-1,0.6c0,0.3,0.2,0.5,0.6,0.5h0.4c1.1-0.1,3.3-0.2,6.6-0.2
		c0.3,0,0.9,0,1.8,0.1c0.9,0.1,1.6,0.1,2.2,0.1h0.6c0.6,0,0.9-0.2,0.9-0.5c0-0.2-0.1-0.3-0.3-0.4c-0.2-0.1-0.8-0.1-1.7-0.1
		c-1,0-1.5-0.2-1.7-0.5c-0.2-0.3-0.3-1.2-0.3-2.6v-29.6c0.9,0,2.2-0.1,3.8-0.1c3.9,0,6.7,0.2,8.3,0.6s2.7,1.2,3.3,2.3
		c0.6,1.1,0.9,2.6,1,4.5c0,0.4,0.2,0.6,0.6,0.6c0.4,0,0.6-0.2,0.6-0.8v-1.3v-0.5v-0.7V288.6z"/>
	<path clip-path="url(#SVGID_2_)" fill="#745645" d="M159.7,302c0,5-1.5,9.2-4.5,12.6c-3,3.4-6.7,5.2-11,5.2
		c-4.6,0-8.5-1.7-11.6-5.2c-3.1-3.5-4.7-7.8-4.7-12.9c0-5.2,1.5-9.5,4.5-12.8c3-3.3,6.9-5,11.6-5c4.4,0,8.2,1.7,11.2,5.2
		C158.1,292.5,159.7,296.8,159.7,302 M154,302.2c0-6.1-1.3-10.9-3.8-14.3c-1.6-2.1-3.8-3.2-6.6-3.2c-2.7,0-4.7,0.8-6.2,2.5
		c-2.7,3-4.1,7.9-4.1,14.7c0,5.4,0.9,9.6,2.8,12.6c1.9,3,4.5,4.5,7.9,4.5c3.2,0,5.6-1.4,7.2-4.2C153.1,311.6,154,307.4,154,302.2"/>
	<path clip-path="url(#SVGID_2_)" fill="#745645" d="M263.1,302c0,5-1.5,9.2-4.5,12.6c-3,3.4-6.7,5.2-11,5.2
		c-4.6,0-8.5-1.7-11.6-5.2c-3.1-3.5-4.7-7.8-4.7-12.9c0-5.2,1.5-9.5,4.5-12.8c3-3.3,6.9-5,11.6-5c4.4,0,8.2,1.7,11.2,5.2
		C261.6,292.5,263.1,296.8,263.1,302 M257.5,302.2c0-6.1-1.3-10.9-3.8-14.3c-1.6-2.1-3.8-3.2-6.6-3.2c-2.7,0-4.7,0.8-6.2,2.5
		c-2.7,3-4.1,7.9-4.1,14.7c0,5.4,0.9,9.6,2.8,12.6c1.9,3,4.5,4.5,7.9,4.5c3.2,0,5.6-1.4,7.2-4.2
		C256.6,311.6,257.5,307.4,257.5,302.2"/>
	<path clip-path="url(#SVGID_2_)" fill="#745645" d="M293.7,310c0,3.4-1.6,5.9-4.7,7.6c-1.5,0.8-3.7,1.3-6.5,1.5c-0.8,0-3,0-6.8,0
		h-6.1c-0.6,0-0.9-0.1-0.9-0.4c0-0.3,0.5-0.4,1.6-0.4c1.2,0,1.9-0.1,2.1-0.4c0.2-0.2,0.3-1,0.3-2.3v-27.1c0-1.5-0.1-2.3-0.2-2.6
		c-0.2-0.4-1.1-0.6-2.6-0.7c-0.9,0-1.4-0.2-1.4-0.5c0-0.3,0.4-0.5,1.3-0.5h0.6c0.4,0.1,0.7,0.2,1,0.2h9.8c3.6,0,6.3,0.6,8.1,1.8
		c2.1,1.4,3.1,3.4,3.1,6c0,2.3-0.9,4.1-2.6,5.6c-1.7,1.5-4.1,2.4-7.2,2.7v0.3c3,0.2,5.4,0.8,7.1,1.9
		C292.5,304.4,293.7,306.8,293.7,310 M287,292.7c0-3.2-0.7-5.3-2.2-6.4c-0.8-0.6-2.2-0.9-4.4-0.9c-0.6,0-1.5,0.1-2.7,0.1v14.5h0.5
		l2.8-0.1c1.9-0.1,3.4-0.7,4.4-2C286.5,296.7,287,295,287,292.7 M288.5,309.5c0-4.2-1.7-6.8-5.1-7.8c-1-0.3-2.9-0.5-5.6-0.5v14.9
		c0,1,0.1,1.5,0.3,1.7c0.3,0.2,1.3,0.4,2.8,0.4c2.3,0,4.1-0.7,5.5-2.2C287.8,314.5,288.5,312.3,288.5,309.5"/>
	<path clip-path="url(#SVGID_2_)" fill="#745645" d="M332.5,302c0,5-1.5,9.2-4.5,12.6c-3,3.4-6.7,5.2-11,5.2
		c-4.6,0-8.5-1.7-11.6-5.2c-3.1-3.5-4.7-7.8-4.7-12.9c0-5.2,1.5-9.5,4.5-12.8c3-3.3,6.9-5,11.6-5c4.4,0,8.2,1.7,11.2,5.2
		C331,292.5,332.5,296.8,332.5,302 M326.9,302.2c0-6.1-1.3-10.9-3.8-14.3c-1.6-2.1-3.8-3.2-6.6-3.2c-2.7,0-4.7,0.8-6.2,2.5
		c-2.7,3-4.1,7.9-4.1,14.7c0,5.4,0.9,9.6,2.8,12.6c1.9,3,4.5,4.5,7.9,4.5c3.2,0,5.6-1.4,7.2-4.2C326,311.6,326.9,307.4,326.9,302.2"
		/>
	<path clip-path="url(#SVGID_2_)" fill-rule="evenodd" clip-rule="evenodd" fill="#745645" d="M191.4,286c0.3-0.7-0.2-0.9-1.2-0.9
		c-0.2,0-0.4,0-0.4-0.2c0-0.3,0.3-0.2,0.5-0.2c3.7,0,0.1,0,3.8,0c0.2,0,0.8-0.1,0.8,0.2c0,0.3-0.3,0.2-0.5,0.2
		c-0.6,0.1-1.1,0.1-1.4,0.7c-4.1,9.4-8.8,18.6-12.9,28c-1.2,2.8-3.4,5-6.4,5.6c-2.6,0.5-5.1-0.3-6.9-2.4c-1.7-2-2.3-4.3-1.2-6.7
		c0.8-1.7,2.6-2.3,4.4-1.4c1.8,0.9,2.2,4.1-0.4,5.2c-1,0.4-1.5,0.8-0.9,2c0.6,1.5,2.6,2.5,4.7,2.1c2.1-0.4,4.3-1.5,6-5.9
		c0.1-0.3,0-0.5-0.1-0.7c-3.9-8.9-7.5-17.2-11.4-26.1c-0.2-0.4-0.6-0.5-1.3-0.5c-0.2,0-0.6,0.1-0.6-0.2c0-0.3,0.4-0.2,0.6-0.2
		c5.8,0,2.1,0,7.9,0c0.2,0,0.6-0.1,0.6,0.2c0,0.3-0.4,0.2-0.6,0.2c-0.7,0.1-1.3,0-1.1,0.6c2.7,6.3,6,14.4,8.8,20.6
		C182.1,306.4,189.3,290.6,191.4,286"/>
	<path clip-path="url(#SVGID_2_)" fill="#745645" d="M169.7,289.8c-0.5-1-1.4-3.1-1.7-3.6c-0.4-0.5-1.6-0.7-2.8-0.7
		c-1.2,0-1.8-0.2-1.8-0.5c0-0.3,0.3-0.4,0.8-0.4c0.7,0,2.1,0,4.2,0.1c1.2,0,2.1,0.1,2.6,0.1l5.8-0.1c0.2-0.1,0.5-0.1,0.8-0.1
		c0.6,0,0.9,0.2,0.9,0.5c0,0.3-0.6,0.5-1.7,0.5c-2.1,0-3,0.4-3,1.1c0,0.6,1.5,3.4,3.1,7.7"/>
	<path clip-path="url(#SVGID_2_)" fill="#745645" d="M178.2,315c0.8-1.5,7.3-16.1,8.3-18.3l2.7-6.1c1.1-2.1,1.7-3.5,1.7-4.2
		c0-0.4-0.3-0.7-0.8-0.8c-1.2-0.2-1.9-0.2-2.3-0.2c-0.7,0-1.1-0.1-1.1-0.5c0-0.3,0.3-0.4,0.9-0.4h2.9h1.6c3.4-0.1,5.1,0.1,5.1,0.5
		c0,0.3-0.3,0.4-0.8,0.4c-1.8,0-3,0.4-3.4,1c-0.4,0.4-1.8,3.2-4.3,8.6c-1.1,2.4-2.1,4.4-3.1,6.2"/>
	<path clip-path="url(#SVGID_2_)" fill="#745645" d="M368.1,314.6c-0.8-0.1-0.9,0.7-1,1.1c-0.3,1.3-1.5,2.2-3.1,2
		c-1.4-0.1-1.2-1.3-1.3-2.8c0-0.3,0-0.6,0-0.9v-29.1c0-0.5,0.1-0.9-0.7-0.9c-0.3,0-0.5,0-0.7,0v0h-6.8c-0.4,0-0.6,0.1-0.6,0.4
		c0,0.2,0.3,0.3,1,0.4c1.7,0.1,2.6,0.3,2.8,0.6c0.2,0.2,0.3,1.1,0.3,2.8v12.3l0,0c0,1.8,0,3.6,0,5.4c0,1.3-0.2,2.7-0.7,3.9
		c-0.9,2.3-2.8,5.3-5.3,6c-3.4,1-6.2-0.4-7.1-3.6c-0.2-0.8-0.3-1.8-0.3-2.7c0-8,0-16.4,0-24.4c0-0.9-0.2-1.1-1.1-1.1
		c-0.6,0-1.1,0-1.5,0h-5.7c-0.4,0-0.6,0.1-0.6,0.4c0,0.2,0.3,0.3,1,0.4c1.7,0.1,2.6,0.3,2.8,0.6c0.2,0.2,0.3,1.1,0.3,2.8l0,0
		c0,7.6,0,15.5,0,23.1c0,5.9,5.3,8.5,9.6,7.4c4.3-1.1,6.3-3.8,8.7-7.7c0,4.8,1.2,8.3,5.9,7.8c1.8-0.2,3.7-1.5,4.3-2.7
		C368.5,315.6,368.8,314.8,368.1,314.6"/>
	<path clip-path="url(#SVGID_2_)" fill="#745645" d="M357.1,271.9c-0.2-0.6-0.5-1.4-1.2-1c-0.9,0.5-0.1,1.2,0.1,1.5
		c0.4,0.8,0.5,1.6,0,2.5c-1.2,2.4-3.1,2.9-4.3,3.2c-2,0.6-4.4-0.6-5.1-2c-0.6-1.2-0.2-1.6,0.8-2.1c2.6-1.3,1.9-4.5,0-5.3
		c-1.9-0.8-3.7-0.1-4.3,1.7c-0.9,2.4-0.1,4.7,1.7,6.6c2,2,4.6,2.7,7.2,2c1.7-0.5,2.9-1.2,3.8-2.3
		C356.9,275.4,357.4,273.2,357.1,271.9"/>
	<path clip-path="url(#SVGID_2_)" fill="#745645" d="M225,308.8c0.8,1.8-2.2,6.1-3,7c-1.3,1.5-4.5,4.1-9.5,3.9
		c-4-0.1-7.8-2.2-10.1-4.4c-4.1-4-5.6-8.7-5.6-13.7c0-5.2,1.5-9.5,4.4-12.9c3-3.3,6.8-5,11.5-5c1.7,0,3.1,0.1,4.1,0.4
		c1,0.3,2.3,0.9,3.8,1.7c0.7,0.4,1.3,0.7,1.7,0.7c0.3,0,0.6-0.3,0.9-0.8c0.4-0.9,0.8-1.4,1.1-1.4c0.3,0,0.4,0.1,0.4,0.4
		c0,0.1,0,0.4-0.1,0.7c-0.4,1.6-0.5,4.6-0.5,9c0,0.6-0.1,1-0.2,1.1c-0.1,0.1-0.2,0.2-0.4,0.2c-0.3,0-0.6-0.3-0.7-1
		c-0.4-2.7-1.1-4.7-1.9-6c-1.6-2.7-4.2-4-7.7-4c-2.7,0-4.8,0.9-6.4,2.7c-2.8,3.2-4.3,8-4.3,14.2c0,5.6,1.2,9.9,3.5,13
		c2,2.7,4.6,3.7,6.7,3.9c1.7,0.2,5.4-0.3,7.5-3.4c1.1-1.6,1.4-3.7,1.8-5.7c0.1-0.8,0.4-1,0.7-1.2C222.9,308,224.5,307.7,225,308.8"
		/>
	<path clip-path="url(#SVGID_2_)" fill="#745645" d="M21.5,301.9v-14.3c0-2,0-2-2-2c-1.4,0-8.3,0-9.3,0v2.3c-0.1,1.1-0.2,1.3-0.4,2
		c-0.1,0.3-0.1,0.9-0.4,0.8c-0.3,0-0.3-0.3-0.3-0.5c0-1.7,0-3.5,0-5.2c0-0.8,0.7-0.7,1.2-0.7c2.2,0,4.4,0,6.6,0h8.7c0.3,0,0.7,0,1,0
		c0.2,0,0,1.4,0,4.4c0,8.9,0,17.9,0,26.8c0,2.4,0.2,2.6,2.6,2.8c0.4,0,1-0.1,1,0.5c0,0.5-0.6,0.4-0.9,0.4c-3.1,0-7.3-0.4-10.4-0.4
		c-0.3,0-1.7,0.4-1.7-0.1c0-0.5,1.3-0.3,1.7-0.3c2.8-0.2,2.8-0.2,2.8-3V301.9z"/>
	<path clip-path="url(#SVGID_2_)" fill="#745645" d="M2.4,320L2,318.8l0.1,0c1.5-0.5,2.6-1,3.2-1.6c1.7-1.5,3.7-8.1,3.5-30.3
		c0-0.5,0-0.8,0-1.1h1.3c0,0.3,0,0.6,0,1.1c0.1,18.5-0.9,28.9-3.7,31.5c-1.1,1-3.3,1.4-3.9,1.6L2.4,320z"/>
	<path clip-path="url(#SVGID_2_)" fill="#745645" d="M8.8,287.3c0-1-0.1-1.6-0.4-1.7c-0.3-0.2-1.2-0.3-2.7-0.3
		c-0.5,0-0.8-0.1-0.8-0.4c0-0.3,0.4-0.4,1.1-0.4h4.6"/>
	<path clip-path="url(#SVGID_2_)" fill="#745645" d="M26.5,287.3c0-1,0.1-1.6,0.4-1.7c0.3-0.2,1.2-0.3,2.7-0.3
		c0.5,0,0.8-0.1,0.8-0.4c0-0.3-0.4-0.4-1.1-0.4h-4.6"/>
	<path clip-path="url(#SVGID_2_)" fill="#745645" d="M12.3,319.4c-4,0-6.5,0.3-7.3,0.6c-2.1,0.8-3.4,2.8-3.7,6.2
		c-0.1,1-0.3,1.5-0.7,1.5c-0.4,0-0.6-0.4-0.6-1.1c0-0.4,0-0.7,0.1-1.1l0.1-1.2c0.1-1.5,0.3-3.6,0.5-6.1h2.3l12,0.1
		c1.2,0,3.1,0,5.6,0l10.3-0.1c0.1,1.9,0.3,4.7,0.7,8.3c0,0.1,0,0.2,0.1,0.4c0,0.2,0,0.2,0,0.3c0,0.4-0.2,0.7-0.6,0.7
		s-0.7-0.4-0.9-1.3c-0.1-0.6-0.1-1.2-0.2-1.8c-0.2-1.2-0.6-2.2-1.2-3.1c-0.7-1.1-1.9-1.8-3.5-2.1c-1-0.2-3.9-0.3-4.5-0.3
		C18.8,319.4,16.4,319.4,12.3,319.4"/>
	<path clip-path="url(#SVGID_2_)" fill="#745645" d="M87.9,70.4c-0.4,3,2.9,10.6,4.2,12.9c0.6,1.2,4.8-1,4.7,1.4
		c-1.8,0-3.1-0.4-5.6-0.3c-3-0.2-6.9,0.4-8.5-0.2c0.1-2.1,6.3,0.6,6.5-2.4c0.1-1.7-1.2-4.9-1.9-6.6c-0.3-0.9-2.2-4.3-1.3-4.9"/>
	<path clip-path="url(#SVGID_2_)" fill="#C39977" d="M113.3,74.7c-0.8,3,1.3,7.8,2.4,10.1c0.6,1.2,4.3-0.3,3.6,1.4
		c-1.9,0.2-6.8,0.3-8.5,0.2c0.3-2,2.8,0,3-1.9c0.1-1.7-1.6-6-1.8-6.9c-0.3-1.1-0.6-2.8,0.4-3.3"/>
	<path clip-path="url(#SVGID_2_)" fill="#C39977" d="M120.1,75.2c-0.7,3.6,3.6,6.7,4.9,9c1.3,2,4.8-0.2,4.7,1.4
		c-1.4,0.4-7.4,0.6-9.1,0.7c0.1-2,2.4,0.2,2.9-1.4c0.4-1.6-3.4-4.3-4.4-7c0-0.1-0.5-1.5-0.1-2.5"/>
	<path clip-path="url(#SVGID_2_)" fill="#745645" d="M97.9,70.7c-0.4,3,6,11,7.3,13.3c0.9,1.1,4.4,0.6,4.6,2.1
		c-0.6,0.2-11.6-1.8-12.5-1.3c0.1-2.1,4.2,0.2,4.7-2.3c0.4-1.6-5.7-9.6-5.6-9.8c-0.7-0.9-1.2-1.8,0.6-2.6c0.3,0,0,0.1,0.2,0.3"/>
	<path clip-path="url(#SVGID_2_)" fill="#745645" d="M66.2,93.2c0,0,0.1,0,0.3-0.1C66.6,93.1,66.5,93.1,66.2,93.2"/>
	<path clip-path="url(#SVGID_2_)" fill="#745645" d="M158.3,80.8c0,0-3.7,1.3-7,1.1c-3.4-0.9-4.3-3.8-4.3-2c0.2,0.2,2.6,2.2,2.5,2.2
		c-4.9,2-30.5,5.9-42.5,3.5c-5.9-1.2-21.3-1.8-28.6-1.1c-4.3,0.4-16-2.3-16-2.3s-4.3-4-6.2-5.4c-1.3-1.1-5.4-3.5-7-2.4
		c0.9,0.1,1.2,0.4,2.1,0.6c2.9,1,6,4.3,8.8,7c-6.8-0.6-13.7,1.4-19.7,2.2c-2.9,0.4-5.9,0.7-8.8,0.9c-2.8,0.2-15.1-0.3-15.1-0.3
		s-2.9-0.1-3.9-0.8c-2.4-1.6-4.8-2-6.3-2c0.3-0.6,0.4-1.9-0.7-2.2c-1.7-0.4-3.4,2.1-1.2,2.9c0.5,0.2,1,0.1,1.4-0.2
		c0.6,0,4.7,0.5,5.8,2.2c-1.3,0.1-5.1-0.1-6.9,1.3c-0.2-0.1-0.5-0.5-1-0.6c-2-0.6-4.2,2.4-1.7,3.7c1.5,0.8,3.1-0.9,3-2.4
		c2.7-1.9,7.1-1,7.6-0.8c-1.1,1.2-3.8,2.4-4.2,4.3c-0.5-0.1-1.4,0.2-1.6,1.2c-0.6,3.1,4.5,1.9,2.4-0.9c-0.1-1.6,3.2-3.1,4.6-3.8
		c0.9-0.5,3.1-0.3,3.1-0.3s13.8,1.3,22,0c6.4-1,16.6-2.8,22.8-1.6c6.9,1.3,9.9,2.3,14,2.8c-5,1-9.7,3.8-11.5,4.9
		c0.7,0.1,2.4,0,2.6,0.1c0.4-0.5,1.1-1,1.7-1.4c2.2-1.6,8-2.9,10.7-3.8l10-1c6-0.4,13.6,1.2,18.9,1.9c18.6,2.3,45.7-3.2,52.8-4.5
		C161.1,83.8,158.5,83.6,158.3,80.8"/>
	<path clip-path="url(#SVGID_2_)" fill="#745645" d="M39.6,86.3c0.4-0.1,3.5-0.6,4.3-0.6c-1.2,0.1-11.1,3.7-11.8,6.1
		c-0.1-0.1-0.5-0.3-0.6-0.5c1.3-2.3,4.9-4.4,7.4-5C39,86.4,39.4,86.3,39.6,86.3"/>
	<path clip-path="url(#SVGID_2_)" fill="#C39977" d="M138.4,34.5c-5.9,0.6-11,6.5-16.8,8.2c-6.2,1.9-15.8,3.9-21.9,1.5
		c-5.1-2-6-5.6-6.5-6.5C89.5,29.3,87,21.9,82.6,13c-0.8-1.7-4.2-7.5-10.7-4.7c-6,2.6-2.7,12.6,7.4,26.5c5.7,7.9,21.2,11.7,21.2,11.7
		c1.6,4.7,3.8,1.4,8.5,3.4c3.3,1.3,8.1,8.1,8.8,8.5c-3.3,11.2-8.4,12.8-10.6,14.2c2,2,9.6,3.5,14.6,2.5c6.1-1.1,11-5,14.2-9.4
		c4.2-5.8,5.8-11.7,9.4-17.7c2.7-4.4,5.5-4.6,7.9-5C145.6,42.8,144.4,33.9,138.4,34.5 M139.6,43.9c-0.9,0-1.6-0.7-1.6-1.5
		c0-0.9,0.7-1.6,1.5-1.6c0.9,0,1.6,0.6,1.6,1.5C141.1,43.2,140.4,43.9,139.6,43.9"/>
	<path clip-path="url(#SVGID_2_)" fill="#745645" d="M124.1,39.4c2.5-7,4.1-9.4,6.8-9.9c-5-1.7-10.2-7.9-15.7-7
		c-6.2,0.9-9.4,9-16.5,12.6c-2.3,1.3-4.2,1.9-10.2,3.7c-4.9,1.2-9.3,2.7-13.4,2.4c-8.4-0.6-12-3.6-16.9-9.7
		C51.6,23.2,44,12.9,37.8,5c-1.3-1.7-5.2-7.3-12.3-3.9C19,4.2,24.6,16.9,38.2,28.9c6.6,5.8,15.4,14.6,25.8,17.3
		c5.8,1.7,11.2-2.8,21.4-3C95.6,43,97.6,48.8,98.7,51c-2.2-2.7-4.5-6.2-13.3-6.2c-8.6,0-14.6,4.9-21.5,3.9c-2.8-0.4-7.7-2.6-8.5-3.2
		c-0.9,11.3,10.5,17.6,17.1,20.2c9.2,3.6,20.1,0.6,25.6-2.9c-4,3.4-8.9,5.9-16.2,6.3c3.8,4.1,14.7,5.4,20.4,3.6
		c2.5-0.8,3.9-1.5,6.3-2.9c2.5-1.6,5.5-3.5,8.5-8.9c0,0,2.9-4.7,5.8-17.2C122.9,43.8,123.8,40.3,124.1,39.4 M117.6,32.6
		c-0.9,0.1-1.6-0.6-1.7-1.5c-0.1-0.9,0.6-1.6,1.5-1.7c0.9,0,1.6,0.6,1.7,1.5C119.1,31.8,118.5,32.5,117.6,32.6"/>
	<path clip-path="url(#SVGID_2_)" fill="#E8C5C6" d="M147.1,80c0,0,0.2,0-1,0.1c-4.5,0.1-7.3-3.7-7.3-7.9c0.9,0.5,1.7,0.8,2.7,1
		c1.7,0.4,3.3,0.8,4.6,2c1.2,1,2,2.9,1.4,4.5c0,0-0.1,0.2-0.1,0.2L147.1,80z"/>
	<path clip-path="url(#SVGID_2_)" fill="#E8C5C6" d="M69.2,91.4c-0.8,1.6-0.9,1.7-0.9,1.7s-3.4,6.6-9.4,8.1c-4.7,1.2-10.3-1-13.7-4
		c3.3-2,7.5-5.9,10.9-7.2c4.6-1.7,8.7-0.7,12,0.1C68,90.2,69.5,90.4,69.2,91.4"/>
	<path clip-path="url(#SVGID_2_)" fill="#E8C5C6" d="M50.7,73.5c-1.8-5.7-9-7.6-15-7.3c-4.1,0.2-6.3,1-8.4,1.9
		c-1.9,0.8-3.5,1-5.7,0.6c-0.3-0.1-0.5-0.1-0.8-0.2c2.2,9.9,16.3,13.8,24.4,9.4c1.9-1,3.8-3.6,6.1-2.9"/>
	<path clip-path="url(#SVGID_2_)" fill="#E8C5C6" d="M12.6,109.1c3.1-1.1,11.9-1.2,16.3-5.1c4.5-4,9.2-15.8-1.4-13.3
		c-4.2,1-8,3.9-10.7,7.2C13.6,101.7,11.9,109.3,12.6,109.1"/>
	<path clip-path="url(#SVGID_2_)" fill="#745645" d="M127.8,87.4c-1.4,1.7-1.7,2.1-2.2,3.3c0,0-1.4,3.4-5.5,5.1
		c-1.2,0.3-3.8,0.2-3.8,0.2c-1.3,0.1-3-0.2-4.8,1.1c-0.2-0.1,0.2-0.6-0.3-0.8c-2-0.6-4.2,1.9-1.9,3.4c1.7,1.1,3.1-0.7,2.6-2
		c1.7-1.6,4.9-1.3,5.4-1.1c0,0,1.3,0.3,0.8,0.7c-1.6,1.1-2.8,1.7-3.2,3.1c0,0-2.4-1-2.9,0.9c0,0-1,2.6,1.4,2.8c0,0,1.3-0.1,1.8-0.7
		c0.4-0.5,1-1.3,0.5-2.6c0,0-0.7-1.6,5.9-4.1c0,0,3.4-1.2,6.8-6.5c0.8-1.8,5.3-2.5,9.8-2.7"/>
</g>
</svg>
