<?xml version="1.0" encoding="utf-8"?>
<!-- Generator: Adobe Illustrator 16.0.0, SVG Export Plug-In . SVG Version: 6.00 Build 0)  -->
<!DOCTYPE svg PUBLIC "-//W3C//DTD SVG 1.0//EN" "http://www.w3.org/TR/2001/REC-SVG-20010904/DTD/svg10.dtd">
<svg version="1.0" id="Layer_1" xmlns="http://www.w3.org/2000/svg" xmlns:xlink="http://www.w3.org/1999/xlink" x="0px" y="0px"
	 width="150px" height="150px" viewBox="0 0 150 150" enable-background="new 0 0 150 150" xml:space="preserve">
<g>
	<path fill="#372E2C" d="M102.1,112.4H47.9c-0.1-0.8-0.2-1.6-0.2-2.2c0-8.2,3.3-16.1,8.9-21.2c2-1.8,3.7-4.1,4.9-6.6h26.9
		c1.2,2.5,2.8,4.7,4.9,6.6c5.6,5.1,8.9,13,8.9,21.2C102.3,110.8,102.2,111.6,102.1,112.4z M61.9,48.6c0.8,0,1.6,0.2,2.1,0.5
		c3.8,2.5,6.1,5.6,8,8.3l0.6,0.9c0.6,0.8,1.4,1.4,2.3,1.4c1,0,1.8-0.6,2.3-1.4l0.7-0.9c2-2.8,4.2-5.9,8-8.3c0.5-0.3,1.3-0.5,2.1-0.5
		c1.9,0,4.9,1.1,4.9,4.1c0,3.7-6.6,15-6.7,15.1H63.7c0-0.1-1-1.8-1-1.8c-2.9-5-5.7-9.7-5.7-13.3C57,49.7,60,48.6,61.9,48.6z
		 M98,83.8c-3.2-2.9-5-7.3-5-12.3v-1.3l0.4-0.6c3.4-5.8,6.7-11.3,6.7-16.9c0-5-3-8.5-7-10.2v-9.4c0-1.5-1.2-2.6-2.6-2.6
		c-1.5,0-2.6,1.2-2.6,2.6v8.4c-2,0-4,0.6-5.6,1.6c-3.1,2-5.4,4.4-7.2,6.6c-1.8-2.2-4.1-4.5-7.2-6.6c-1.6-1-3.5-1.6-5.6-1.6v-8.4
		c0-1.5-1.1-2.6-2.6-2.6c-1.5,0-2.6,1.2-2.6,2.6v9.4c-3.9,1.6-7,5.2-7,10.2c0,5.6,3.2,11.1,6.7,16.9l0.4,0.6v1.3c0,5-1.8,9.4-5,12.3
		c-7,6.4-11.3,16.3-11.3,26.4c0,1.6,0.5,4.7,0.7,6.2c0.3,1.7,1.7,3,3.5,3h60.3c1.8,0,3.2-1.3,3.5-3c0.2-1.5,0.7-4.6,0.7-6.2
		C109.3,100.1,105,90.2,98,83.8z"/>
</g>
</svg>
