<?xml version="1.0" encoding="utf-8"?>
<!-- Generator: Adobe Illustrator 16.0.0, SVG Export Plug-In . SVG Version: 6.00 Build 0)  -->
<!DOCTYPE svg PUBLIC "-//W3C//DTD SVG 1.0//EN" "http://www.w3.org/TR/2001/REC-SVG-20010904/DTD/svg10.dtd">
<svg version="1.0" id="Layer_1" xmlns="http://www.w3.org/2000/svg" xmlns:xlink="http://www.w3.org/1999/xlink" x="0px" y="0px"
	 width="150px" height="150px" viewBox="0 0 150 150" enable-background="new 0 0 150 150" xml:space="preserve">
<g>
	<g>
		<path fill="#372E2C" d="M85,85.1c0,0-8.4,2.8-10,12.5c0,0,0,0,0,0c-1.6-9.7-10-12.5-10-12.5l5.5-5.4c-7.7-3.5-9.8-15.2-9.8-15.2
			c-0.4-1.7-0.5-2.9-0.5-2.9c3.9-0.3,17.4-1.4,18.3-5.8c1.3,2.3,8,8.3,10.7,8.7c0,0-2.6,11.6-9.9,15.2L85,85.1z M101.9,87.5
			c-0.7-1.6-2.2-2.6-3.7-3.2l-5-2.3c0-3.7,0-21.9,0-23.8c0-3-0.3-5.6-1.1-7.9l6.2-2.2l0,5.7h-0.4c-0.3,0-0.6,0.2-0.6,0.5L96.8,59
			c0,0.1,0,0.3,0.1,0.4s0.2,0.2,0.4,0.2l4.3,0c0.1,0,0.3-0.1,0.4-0.2c0.1-0.1,0.1-0.3,0.1-0.4c-0.1-0.9-0.2-1.9-0.3-2.8l-0.2-1.9
			c0-0.3-0.3-0.5-0.6-0.5h-0.4l0-6.5l0.2-0.1l0.7-0.3c0.6-0.2,1-0.8,1-1.5c0-0.7-0.4-1.2-1-1.5l-25.9-9.4c-0.3-0.1-0.7-0.1-1.1,0
			L48.5,44c-0.6,0.2-1,0.8-1,1.5s0.4,1.2,1,1.5l9.4,3.4c-0.8,2.4-1.2,5.1-1.2,8.1l0,23.6l-5,2.3c-1.5,0.6-3,1.5-3.7,3.2
			c0,0-11,28-5,28h63.9C112.9,115.5,101.9,87.5,101.9,87.5z"/>
	</g>
</g>
</svg>
