<?xml version="1.0" encoding="utf-8"?>
<!-- Generator: Adobe Illustrator 16.0.0, SVG Export Plug-In . SVG Version: 6.00 Build 0)  -->
<!DOCTYPE svg PUBLIC "-//W3C//DTD SVG 1.0//EN" "http://www.w3.org/TR/2001/REC-SVG-20010904/DTD/svg10.dtd">
<svg version="1.0" id="Layer_1" xmlns="http://www.w3.org/2000/svg" xmlns:xlink="http://www.w3.org/1999/xlink" x="0px" y="0px"
	 width="48px" height="48px" viewBox="0 0 48 48" enable-background="new 0 0 48 48" xml:space="preserve">
<g>
	<g>
		<path fill="#FFFFFF" d="M41.3,24.1c-1.1,0-2,0.9-2,2v10.3c0,3-1.9,5.7-4.7,6.7c-0.8,0.3-1.6,0.5-2.5,0.5H11.4
			c-4,0-7.2-3.2-7.2-7.2V15.8c0-4,3.2-7.2,7.2-7.2h10.3c1.1,0,2-0.9,2-2c0-1.1-0.9-2-2-2H11.4c-6.2,0-11.3,5-11.3,11.3v20.6
			c0,6.2,5.1,11.3,11.3,11.3H32c1.4,0,2.7-0.2,3.9-0.7c4.4-1.6,7.3-5.9,7.3-10.6V26.1C43.3,25,42.4,24.1,41.3,24.1z"/>
	</g>
</g>
<g>
	<path fill="#FFFFFF" d="M37.2,17c-3.5,0-6.3-2.8-6.3-6.3c0-3.5,2.8-6.3,6.3-6.3c3.5,0,6.3,2.8,6.3,6.3C43.6,14.1,40.7,17,37.2,17z
		 M37.2,0.2c-5.7,0-10.4,4.7-10.4,10.4c0,5.7,4.7,10.4,10.4,10.4c5.7,0,10.4-4.7,10.4-10.4C47.6,4.9,43,0.2,37.2,0.2z"/>
	<path fill="#FFFFFF" d="M16.1,21.8c0,1.1,0.9,2,2,2h7.1c1.1,0,2-0.9,2-2c0-1.1-0.9-2-2-2h-7.1C17,19.8,16.1,20.7,16.1,21.8z"/>
	<path fill="#FFFFFF" d="M25.3,28.4h-7.1c-1.1,0-2,0.9-2,2c0,1.1,0.9,2,2,2h7.1c1.1,0,2-0.9,2-2C27.3,29.3,26.4,28.4,25.3,28.4z"/>
</g>
</svg>
