<?xml version="1.0" encoding="utf-8"?>
<!-- Generator: Adobe Illustrator 16.0.0, SVG Export Plug-In . SVG Version: 6.00 Build 0)  -->
<!DOCTYPE svg PUBLIC "-//W3C//DTD SVG 1.0//EN" "http://www.w3.org/TR/2001/REC-SVG-20010904/DTD/svg10.dtd">
<svg version="1.0" id="Layer_1" xmlns="http://www.w3.org/2000/svg" xmlns:xlink="http://www.w3.org/1999/xlink" x="0px" y="0px"
	 width="150px" height="150px" viewBox="0 0 150 150" enable-background="new 0 0 150 150" xml:space="preserve">
<g>
	<rect x="31.6" y="66.9" fill="#372E2C" width="15.3" height="45.1"/>
	<path fill="#372E2C" d="M66.7,65.7c6.1-6.1,16-6.1,22,0c6.1,6.1,6.1,16,0,22.1c-6.1,6.1-16,6.1-22.1,0
		C60.6,81.7,60.6,71.8,66.7,65.7z M118.4,108.8l-18.3-18.3L97.7,92l-3.6-3.5c5.6-7.9,4.9-18.9-2.1-26c-0.5-0.5-1-0.9-1.6-1.3V32.5
		H75.1v24.3c-2.2,0.3-4.4,0.9-6.4,2v-7.4H53.4V112h15.3V94.8c2.1,1,4.2,1.7,6.5,2V112h15.3V94.2l2.4,2.3l-1.4,2.7l18.3,18.3
		c0,0,4,0.1,6.4-2.7C118.5,112.1,118.4,108.8,118.4,108.8z"/>
</g>
</svg>
