<?xml version="1.0" encoding="utf-8"?>
<!-- Generator: Adobe Illustrator 16.0.0, SVG Export Plug-In . SVG Version: 6.00 Build 0)  -->
<!DOCTYPE svg PUBLIC "-//W3C//DTD SVG 1.0//EN" "http://www.w3.org/TR/2001/REC-SVG-20010904/DTD/svg10.dtd">
<svg version="1.0" id="Layer_1" xmlns="http://www.w3.org/2000/svg" xmlns:xlink="http://www.w3.org/1999/xlink" x="0px" y="0px"
	 width="34px" height="34px" viewBox="0 0 34 34" enable-background="new 0 0 34 34" xml:space="preserve">
<path fill="#FFFFFF" d="M25.9,24.8l-1.4,1.4c-0.2,0.2-1,0.4-1,0.4c-4.3,0-8.4-1.7-11.5-4.7c-3.1-3.1-4.7-7.2-4.7-11.5
	c0,0,0.2-0.7,0.4-0.9L9.2,8c0.5-0.5,1.5-0.7,2.1-0.5l0.3,0.1c0.7,0.2,1.4,1,1.6,1.6l0.7,2.5c0.2,0.7-0.1,1.7-0.6,2.1l-0.9,0.9
	c0.9,3.3,3.5,5.9,6.8,6.8l0.9-0.9c0.5-0.5,1.5-0.8,2.2-0.6l2.5,0.7c0.7,0.2,1.4,0.9,1.6,1.6l0.1,0.3C26.7,23.3,26.4,24.3,25.9,24.8z
	 M17,0C7.6,0,0,7.6,0,17s7.6,17,17,17s17-7.6,17-17S26.4,0,17,0z"/>
</svg>
