<?xml version="1.0" encoding="utf-8"?>
<!-- Generator: Adobe Illustrator 16.0.0, SVG Export Plug-In . SVG Version: 6.00 Build 0)  -->
<!DOCTYPE svg PUBLIC "-//W3C//DTD SVG 1.0//EN" "http://www.w3.org/TR/2001/REC-SVG-20010904/DTD/svg10.dtd">
<svg version="1.0" id="Layer_1" xmlns="http://www.w3.org/2000/svg" xmlns:xlink="http://www.w3.org/1999/xlink" x="0px" y="0px"
	 width="200px" height="200px" viewBox="0 0 200 200" enable-background="new 0 0 200 200" xml:space="preserve">
<g>
	<g>
		<path fill="#372E2C" d="M98.9,45.5L55.7,68.9l1.9-0.5l51.6-13.1l-4.4-8.1C103.7,45.2,101,44.4,98.9,45.5z"/>
		<path fill="#372E2C" d="M139.8,70l-3.3-12.9c-0.5-2-2.3-3.3-4.2-3.3c-0.3,0-0.7,0-1.1,0.1L111.1,59L67.7,70L139.8,70L139.8,70z"/>
		<path fill="#372E2C" d="M110.5,125.4v-22c0-4.6,3.7-8.3,8.3-8.3h33.1v-17c0-2.4-2-4.4-4.4-4.4H46.6c-1.6,0-3,0.9-3.8,2.2
			c-0.4,0.6-0.6,1.4-0.6,2.2v72.5c0,2.4,2,4.4,4.4,4.4h100.9c2.4,0,4.4-2,4.4-4.4v-17h-33.1C114.2,133.7,110.5,129.9,110.5,125.4z"
			/>
	</g>
</g>
<g>
	<path fill="#372E2C" d="M129.7,121.5c-3.9,0-7.1-3.2-7.1-7.1c0-3.9,3.2-7.1,7.1-7.1c3.9,0,7.1,3.2,7.1,7.1
		C136.8,118.3,133.6,121.5,129.7,121.5z M155.6,99.6c-0.6-0.3-1.2-0.5-1.9-0.6c-0.1,0-0.2,0-0.4,0h-34.6c-2.4,0-4.4,2-4.4,4.4v22
		c0,2.4,2,4.4,4.4,4.4h34.6c0.1,0,0.2,0,0.4,0c0.7,0,1.3-0.3,1.9-0.6c1.3-0.8,2.1-2.2,2.1-3.8v-22
		C157.8,101.8,156.9,100.4,155.6,99.6z"/>
</g>
</svg>
