<?xml version="1.0" encoding="utf-8"?>
<!-- Generator: Adobe Illustrator 16.0.0, SVG Export Plug-In . SVG Version: 6.00 Build 0)  -->
<!DOCTYPE svg PUBLIC "-//W3C//DTD SVG 1.0//EN" "http://www.w3.org/TR/2001/REC-SVG-20010904/DTD/svg10.dtd">
<svg version="1.0" id="Layer_1" xmlns="http://www.w3.org/2000/svg" xmlns:xlink="http://www.w3.org/1999/xlink" x="0px" y="0px"
	 width="40px" height="40px" viewBox="0 0 40 40" enable-background="new 0 0 40 40" xml:space="preserve">
<g>
	<g>
		<path fill="#372E2C" d="M31,18.2c0-1.2-0.2-2.3-0.7-3.5c-0.4-1.1-1.1-2.2-2-3.1c-0.9-0.9-1.9-1.6-3.1-2S23,9,21.8,9
			s-2.3,0.2-3.5,0.7c-1.2,0.5-2.2,1.1-3.1,2c-0.8,0.8-1.4,1.6-1.8,2.6c-0.4,0.9-0.7,1.9-0.8,3c-0.1,1,0,2,0.2,3.1
			c0.2,1,0.6,2,1.2,2.8l-4,4c-0.5,0.5-0.7,1.1-0.7,1.7c0,0.6,0.2,1.1,0.7,1.6s1,0.7,1.7,0.7c0.7,0,1.2-0.2,1.7-0.7l4.2-4.2
			c0.9,0.5,1.8,0.8,2.7,0.9c0.9,0.2,1.9,0.2,2.8,0c0.9-0.1,1.9-0.4,2.8-0.9c0.9-0.4,1.7-1,2.4-1.7c0.9-0.9,1.6-1.9,2-3.1
			C30.8,20.5,31,19.3,31,18.2z M40,20c0,1.8-0.2,3.6-0.7,5.3s-1.2,3.3-2,4.8c-0.9,1.5-1.9,2.8-3.1,4c-1.2,1.2-2.6,2.3-4,3.1
			c-1.5,0.9-3.1,1.5-4.8,2C23.6,39.8,21.8,40,20,40s-3.6-0.2-5.3-0.7c-1.7-0.5-3.3-1.2-4.8-2c-1.5-0.9-2.8-1.9-4-3.1
			c-1.2-1.2-2.3-2.6-3.1-4c-0.9-1.5-1.5-3.1-2-4.8C0.2,23.6,0,21.8,0,20s0.2-3.6,0.7-5.3c0.5-1.7,1.2-3.3,2-4.8
			c0.9-1.5,1.9-2.8,3.1-4c1.2-1.2,2.6-2.3,4-3.1c1.5-0.9,3.1-1.5,4.8-2C16.4,0.2,18.2,0,20,0c2.7,0,5.3,0.5,7.8,1.6
			c2.4,1.1,4.6,2.5,6.4,4.3c1.8,1.8,3.2,3.9,4.3,6.4C39.5,14.7,40,17.3,40,20z M26.6,16.2c0.2,0.6,0.4,1.3,0.4,1.9s-0.1,1.3-0.4,1.9
			c-0.2,0.6-0.6,1.2-1.1,1.7s-1.1,0.9-1.7,1.1c-0.6,0.3-1.3,0.4-1.9,0.4c-0.6,0-1.3-0.1-1.9-0.4c-0.6-0.3-1.2-0.6-1.7-1.1
			s-0.9-1.1-1.1-1.7c-0.3-0.6-0.4-1.3-0.4-1.9s0.1-1.3,0.4-1.9c0.3-0.6,0.6-1.2,1.1-1.7s1.1-0.9,1.7-1.1c0.6-0.2,1.3-0.4,1.9-0.4
			c0.6,0,1.3,0.1,1.9,0.4c0.6,0.2,1.2,0.6,1.7,1.1C25.9,15,26.3,15.6,26.6,16.2z"/>
	</g>
</g>
</svg>
