<?xml version="1.0" encoding="utf-8"?>
<!-- Generator: Adobe Illustrator 16.0.0, SVG Export Plug-In . SVG Version: 6.00 Build 0)  -->
<!DOCTYPE svg PUBLIC "-//W3C//DTD SVG 1.0//EN" "http://www.w3.org/TR/2001/REC-SVG-20010904/DTD/svg10.dtd">
<svg version="1.0" id="Layer_1" xmlns="http://www.w3.org/2000/svg" xmlns:xlink="http://www.w3.org/1999/xlink" x="0px" y="0px"
	 width="60px" height="60px" viewBox="0 0 60 60" enable-background="new 0 0 60 60" xml:space="preserve">
<path fill="#372E2C" d="M59.7,2.5c-0.3-0.2-0.6-0.3-1-0.1l-58.2,27C0.2,29.5,0,29.8,0,30.2c0,0.3,0.2,0.7,0.5,0.8L17,39.1
	c0.3,0.2,0.7,0.1,0.9-0.1l16-12L21.3,39.9c-0.2,0.2-0.3,0.4-0.3,0.7l1.3,16.3c0,0.4,0.3,0.7,0.6,0.8c0.1,0,0.2,0,0.3,0
	c0.3,0,0.5-0.1,0.7-0.3l8.7-10.1l10.8,5.2c0.2,0.1,0.5,0.1,0.7,0c0.2-0.1,0.4-0.3,0.5-0.6L60,3.4C60.1,3.1,60,2.7,59.7,2.5z"/>
</svg>
