<?xml version="1.0" encoding="utf-8"?>
<!-- Generator: Adobe Illustrator 16.0.0, SVG Export Plug-In . SVG Version: 6.00 Build 0)  -->
<!DOCTYPE svg PUBLIC "-//W3C//DTD SVG 1.0//EN" "http://www.w3.org/TR/2001/REC-SVG-20010904/DTD/svg10.dtd">
<svg version="1.0" id="Layer_1" xmlns="http://www.w3.org/2000/svg" xmlns:xlink="http://www.w3.org/1999/xlink" x="0px" y="0px"
	 width="150px" height="150px" viewBox="0 0 150 150" enable-background="new 0 0 150 150" xml:space="preserve">
<g>
	<path fill="#372E2C" d="M70.4,115.2c0.8,1.7,2.6,2.8,4.4,2.8c1.9,0,3.6-1,4.5-2.7l7.8-15.6H62.7L70.4,115.2z"/>
	<path fill="#372E2C" d="M109.3,61.5c1.3,0.2,2.2,1.3,2.2,2.6c0,1.4-1.2,2.6-2.6,2.6c-0.8,0-1.6-0.4-2.1-1c-0.9-1.2-2.7-1.6-4-0.8
		c-1.3,0.8-1.9,2.4-1.3,3.9c0.1,0.3,0.2,0.7,0.2,1c0,1.5-1.2,2.7-2.7,2.7c-1.5,0-2.7-1.2-2.7-2.7c0-0.2,0-0.4,0.1-0.6
		c0.9-1.5,1.4-3.3,1.4-5.1c0.4,0.1,0.8,0.1,1.1,0.1c3.1,0,5.7-2.6,5.7-5.7s-2.5-5.7-5.7-5.7c-0.6,0-1.2,0.1-1.8,0.3
		c0.4-1.1,0.6-2.3,0.6-3.5c0-1.5-0.3-2.8-0.9-4.1c0.5-0.6,1.2-0.9,2-0.9c1.4,0,2.6,1.2,2.6,2.6c0,0.3,0,0.5-0.1,0.8
		c-0.4,1.4,0.1,2.9,1.4,3.6c1.3,0.7,2.8,0.5,3.8-0.6c0.5-0.6,1.3-0.9,2-0.9c1.5,0,2.8,1.2,2.8,2.8c0,1.3-1,2.5-2.3,2.7
		c-1.5,0.3-2.6,1.6-2.5,3.1C106.6,60,107.8,61.3,109.3,61.5z M51,72.4c-1.5,0-2.7-1.2-2.7-2.7c0-0.4,0.1-0.7,0.2-1
		c0.6-1.4,0-3.1-1.3-3.9c-0.5-0.3-1-0.4-1.5-0.4c-0.9,0-1.9,0.4-2.5,1.2c-0.5,0.7-1.3,1-2.1,1c-1.4,0-2.6-1.2-2.6-2.6
		c0-1.3,0.9-2.4,2.2-2.6c1.5-0.2,2.6-1.5,2.6-3c0-1.5-1.1-2.8-2.5-3.1c-1.3-0.2-2.3-1.4-2.3-2.7c0-1.5,1.2-2.8,2.8-2.8
		c0.8,0,1.5,0.3,2,0.9c1,1.1,2.6,1.3,3.8,0.6c1.3-0.7,1.8-2.2,1.4-3.6c-0.1-0.3-0.1-0.5-0.1-0.8c0-1.4,1.2-2.6,2.6-2.6
		c0.8,0,1.5,0.4,2,1c-0.6,1.3-0.9,2.7-0.9,4.2c0,1.2,0.2,2.4,0.6,3.4c-0.5-0.2-1.1-0.3-1.7-0.3c-3.1,0-5.7,2.5-5.7,5.7
		c0,3.1,2.5,5.7,5.7,5.7c0.4,0,0.8,0,1.2-0.1v0c0,1.9,0.5,3.6,1.4,5.2c0,0.2,0.1,0.4,0.1,0.6C53.6,71.2,52.4,72.4,51,72.4z
		 M61.9,53.8c-2.1-0.4-3.6-2.2-3.6-4.3c0-2.4,1.9-4.3,4.3-4.3c1.2,0,2.4,0.5,3.2,1.4c1,1.1,2.6,1.3,3.8,0.6c1.2-0.7,1.8-2.2,1.4-3.6
		c-0.1-0.4-0.2-0.8-0.2-1.3c0-2.3,1.9-4.1,4.1-4.1c2.3,0,4.1,1.9,4.1,4.1c0,0.5-0.1,0.9-0.2,1.4c-0.5,1.4,0.1,3,1.4,3.7
		c1.3,0.8,2.9,0.5,3.9-0.7c0.8-1,2-1.5,3.2-1.5c2.3,0,4.2,1.9,4.2,4.2c0,2.1-1.5,3.9-3.6,4.2c-1.5,0.2-2.6,1.5-2.6,3.1
		c0,1.5,1.1,2.8,2.6,3c2,0.3,3.6,2.1,3.6,4.2c0,2.3-1.9,4.2-4.2,4.2c-1.3,0-2.5-0.6-3.3-1.6c-1-1.2-2.6-1.5-3.9-0.7
		c-1.3,0.8-1.9,2.4-1.3,3.8c0.2,0.5,0.3,1,0.3,1.5c0,2.3-1.9,4.2-4.2,4.2c-2.3,0-4.2-1.9-4.2-4.2c0-0.6,0.1-1.1,0.3-1.6
		c0.6-1.4,0-3.1-1.3-3.9c-0.5-0.3-1-0.4-1.5-0.4c-0.9,0-1.9,0.4-2.5,1.2c-0.8,1-2,1.6-3.3,1.6c-2.3,0-4.1-1.9-4.1-4.1
		c0-2,1.5-3.8,3.5-4.1c1.5-0.2,2.6-1.5,2.6-3C64.5,55.4,63.4,54.1,61.9,53.8z M117.6,52.7c0-4.9-4-8.9-8.9-8.9c-0.5,0-1,0-1.5,0.1
		c-1.3-3.3-4.5-5.7-8.2-5.7c-2.3,0-4.4,0.9-6,2.4c-1.6-1-3.5-1.6-5.5-1.6c-0.9,0-1.7,0.1-2.5,0.3C83.6,35.1,79.7,32,75,32
		c-4.6,0-8.6,3.1-9.9,7.3c-0.8-0.2-1.6-0.3-2.5-0.3c-2.1,0-4,0.6-5.6,1.6c-1.6-1.5-3.7-2.4-6-2.4c-3.7,0-6.9,2.4-8.2,5.7
		c-0.5-0.1-1-0.1-1.5-0.1c-4.9,0-8.9,4-8.9,8.9c0,2.2,0.8,4.2,2.1,5.7c-1.3,1.5-2.1,3.5-2.1,5.6c0,4.8,3.9,8.8,8.8,8.8
		c0.5,0,1,0,1.5-0.1c1.2,3.4,4.5,5.8,8.3,5.8c0.4,0,0.8,0,1.2-0.1l7.5,15.1h30.6l7.6-15.1c0.4,0.1,0.8,0.1,1.2,0.1
		c3.8,0,7.1-2.4,8.3-5.8c0.5,0.1,1,0.1,1.5,0.1c4.8,0,8.8-3.9,8.8-8.8c0-2.1-0.8-4.1-2.1-5.6C116.8,56.9,117.6,54.9,117.6,52.7z"/>
	<path fill="#372E2C" d="M82.7,56.7c0,4.2-3.4,7.7-7.7,7.7c-4.2,0-7.7-3.4-7.7-7.7c0-4.2,3.4-7.7,7.7-7.7
		C79.2,49.1,82.7,52.5,82.7,56.7z"/>
</g>
</svg>
