<?xml version="1.0" encoding="utf-8"?>
<!-- Generator: Adobe Illustrator 16.0.0, SVG Export Plug-In . SVG Version: 6.00 Build 0)  -->
<!DOCTYPE svg PUBLIC "-//W3C//DTD SVG 1.0//EN" "http://www.w3.org/TR/2001/REC-SVG-20010904/DTD/svg10.dtd">
<svg version="1.0" id="Layer_1" xmlns="http://www.w3.org/2000/svg" xmlns:xlink="http://www.w3.org/1999/xlink" x="0px" y="0px"
	 width="200px" height="200px" viewBox="0 0 200 200" enable-background="new 0 0 200 200" xml:space="preserve">
<g>
	<g>
		<path fill="#372E2C" d="M99.7,114.4l-43.2-13.3v22.2c0,10.3,19.4,18.6,43.2,18.6c23.9,0,43.2-8.3,43.2-18.6c0-0.1,0-0.2,0-0.2v-22
			L99.7,114.4z"/>
		<path fill="#372E2C" d="M27.3,85.8l15.4,5.5l1.3-2.8l5.7-0.5l0.8,0.8L45.6,90l-0.7,2.1c0,0-11,23-9.4,34.2c0,0,6.9,4.1,13.7,0
			l1.8-30.7V93l10.2-2.3l-0.7,1.8L53,95l3.5,1.3l43.2,13.3L143,96.2l29.2-10.5L99.7,57.9L27.3,85.8z"/>
	</g>
</g>
</svg>
