<?xml version="1.0" encoding="utf-8"?>
<!-- Generator: Adobe Illustrator 16.0.0, SVG Export Plug-In . SVG Version: 6.00 Build 0)  -->
<!DOCTYPE svg PUBLIC "-//W3C//DTD SVG 1.0//EN" "http://www.w3.org/TR/2001/REC-SVG-20010904/DTD/svg10.dtd">
<svg version="1.0" id="Layer_1" xmlns="http://www.w3.org/2000/svg" xmlns:xlink="http://www.w3.org/1999/xlink" x="0px" y="0px"
	 width="200px" height="200px" viewBox="0 0 200 200" enable-background="new 0 0 200 200" xml:space="preserve">
<g>
	<g>
		<path fill="#372E2C" d="M115.3,59.3c0,8.4-6.8,15.3-15.3,15.3c-8.4,0-15.3-6.8-15.3-15.3c0-8.4,6.8-15.3,15.3-15.3
			C108.4,44,115.3,50.8,115.3,59.3z"/>
		<path fill="#372E2C" d="M110.8,85.8h-2.2v8.5h2.2v1.8l-11.6,2.1l-11.7-2.1v-1.8h2.1v-8.5h-2.1V79l11.7,2.1l11.6-2.1V85.8z
			 M116.1,100.8l-0.2-6.5H127l-2.5-8.5l-1.9-6.7l-8.3-1.1v-3.3l-15.2,2.8l-15.2-2.8v3.4L77.4,79L71,92.3h0l-0.9,2h13.1v6.5H51.8
			v12.5h7.8V156h80.8v-42.7h7.8v-12.5H116.1z"/>
	</g>
</g>
</svg>
