<?xml version="1.0" encoding="utf-8"?>
<!-- Generator: Adobe Illustrator 16.0.0, SVG Export Plug-In . SVG Version: 6.00 Build 0)  -->
<!DOCTYPE svg PUBLIC "-//W3C//DTD SVG 1.0//EN" "http://www.w3.org/TR/2001/REC-SVG-20010904/DTD/svg10.dtd">
<svg version="1.0" id="Layer_1" xmlns="http://www.w3.org/2000/svg" xmlns:xlink="http://www.w3.org/1999/xlink" x="0px" y="0px"
	 width="150px" height="150px" viewBox="0 0 150 150" enable-background="new 0 0 150 150" xml:space="preserve">
<g>
	<g>
		<path fill="#372E2C" d="M97.4,84.6H86.9l7.8-7.7h10.2L97.4,84.6z M58.6,76.8h10.3l-7.7,7.8H50.9L58.6,76.8z M49,71.7l1.6-8.8
			l9.2-5.9l-1.6,8.8L49,71.7z M67.5,52.4l9.3-5.8l-1.7,8.7l-9.3,5.8L67.5,52.4z M83.8,42.4l9.2-5.9l-1.3,8.6l-9.4,6L83.8,42.4z
			 M87.2,76.8l-8,7.8H68.9l7.8-7.8H87.2z M105.9,73.8h-54l1.8-1.3c13.4-7.8,43-26.3,43-26.3c1.2-0.7,1.6-2.3,0.9-3.5l-2.6-6.3
			c-0.7-1.2-2.3-1.6-3.5-1L42.8,65c-1.2,0.7-1.6,2.3-0.9,3.5l4.7,5.1l0.1,38.9c0,1.4,1.1,2.6,2.6,2.6h56.7c1.4,0,2.6-1.1,2.6-2.6
			V76.4C108.5,74.9,107.3,73.8,105.9,73.8z"/>
	</g>
</g>
</svg>
